Notch Sans-Regular.ufo
<glyph name="exclam" format="1">
  <advance width="239"/>
  <unicode hex="0021"/>
  <outline>
    <contour>
      <point x="60" y="700" type="line"/>
      <point x="75" y="200" type="line"/>
      <point x="165" y="200" type="line"/>
      <point x="180" y="700" type="line"/>
    </contour>
    <component base="period" xOffset="45"/>
  </outline>
</glyph>
<glyph name="numbersign" format="1">
  <advance width="537"/>
  <unicode hex="0023"/>
  <outline>
    <contour>
      <point x="209" y="700" type="line"/>
      <point x="44" y="0" type="line"/>
      <point x="146" y="0" type="line"/>
      <point x="311" y="700" type="line"/>
    </contour>
    <contour>
      <point x="399" y="700" type="line"/>
      <point x="234" y="0" type="line"/>
      <point x="336" y="0" type="line"/>
      <point x="501" y="700" type="line"/>
    </contour>
    <component base="emdash" xOffset="13" yOffset="-64" xScale="0.906"/>
    <component base="emdash" xOffset="57" yOffset="153" xScale="0.906"/>
  </outline>
</glyph>
<glyph name="dollar" format="1">
  <advance width="390"/>
  <unicode hex="0024"/>
  <outline>
    <contour>
      <point x="134" y="700" type="line"/>
      <point x="44" y="620" type="line"/>
      <point x="44" y="447" type="line"/>
      <point x="98" y="373" type="line"/>
      <point x="244" y="316" type="line"/>
      <point x="273" y="282" type="line"/>
      <point x="273" y="108" type="line"/>
      <point x="243" y="81" type="line"/>
      <point x="174" y="81" type="line"/>
      <point x="144" y="108" type="line"/>
      <point x="144" y="245" type="line"/>
      <point x="40" y="245" type="line"/>
      <point x="40" y="84" type="line"/>
      <point x="135" y="0" type="line"/>
      <point x="296" y="0" type="line"/>
      <point x="391" y="84" type="line"/>
      <point x="391" y="312" type="line"/>
      <point x="332" y="385" type="line"/>
      <point x="179" y="444" type="line"/>
      <point x="155" y="472" type="line"/>
      <point x="155" y="593" type="line"/>
      <point x="185" y="620" type="line"/>
      <point x="248" y="620" type="line"/>
      <point x="279" y="593" type="line"/>
      <point x="279" y="493" type="line"/>
      <point x="379" y="493" type="line"/>
      <point x="379" y="633" type="line"/>
      <point x="303" y="700" type="line"/>
    </contour>
    <contour>
      <point x="191" y="378" type="line"/>
      <point x="239" y="378" type="line"/>
      <point x="239" y="800" type="line"/>
      <point x="191" y="800" type="line"/>
    </contour>
    <contour>
      <point x="185" y="-100" type="line"/>
      <point x="233" y="-100" type="line"/>
      <point x="233" y="349" type="line"/>
      <point x="185" y="349" type="line"/>
    </contour>
  </outline>
</glyph>
<glyph name="ampersand" format="1">
  <advance width="480"/>
  <unicode hex="0026"/>
  <outline>
    <contour>
      <point x="367" y="394" type="line"/>
      <point x="266" y="132" type="line"/>
      <point x="211" y="81" type="line"/>
      <point x="270" y="0" type="line"/>
      <point x="355" y="81" type="line"/>
      <point x="447" y="358" type="line"/>
    </contour>
    <contour>
      <point x="75" y="627" type="line"/>
      <point x="75" y="498" type="line"/>
      <point x="361" y="0" type="line"/>
      <point x="418" y="0" type="line"/>
      <point x="448" y="42" type="line"/>
      <point x="175" y="522" type="line"/>
      <point x="175" y="605" type="line"/>
      <point x="199" y="625" type="line"/>
      <point x="162" y="700" type="line"/>
    </contour>
    <contour>
      <point x="359" y="490" type="line"/>
      <point x="359" y="632" type="line"/>
      <point x="276" y="700" type="line"/>
      <point x="164" y="700" type="line"/>
      <point x="191" y="625" type="line"/>
      <point x="231" y="625" type="line"/>
      <point x="254" y="604" type="line"/>
      <point x="254" y="510" type="line"/>
      <point x="194" y="454" type="line"/>
      <point x="150" y="430" type="line"/>
      <point x="40" y="334" type="line"/>
      <point x="40" y="84" type="line"/>
      <point x="142" y="0" type="line"/>
      <point x="270" y="0" type="line"/>
      <point x="253" y="81" type="line"/>
      <point x="187" y="81" type="line"/>
      <point x="155" y="110" type="line"/>
      <point x="155" y="294" type="line"/>
    </contour>
  </outline>
</glyph>
<glyph name="quotesingle" format="1">
  <advance width="102"/>
  <unicode hex="0027"/>
  <outline>
    <contour>
      <point x="20" y="458" type="line"/>
      <point x="82" y="458" type="line"/>
      <point x="92" y="700" type="line"/>
      <point x="10" y="700" type="line"/>
    </contour>
  </outline>
</glyph>
<glyph name="parenleft" format="1">
  <advance width="232"/>
  <unicode hex="0028"/>
  <outline>
    <contour>
      <point x="222" y="700" type="line"/>
      <point x="144" y="700" type="line"/>
      <point x="41" y="611" type="line"/>
      <point x="41" y="9" type="line"/>
      <point x="144" y="-80" type="line"/>
      <point x="222" y="-80" type="line"/>
      <point x="222" y="0" type="line"/>
      <point x="197" y="0" type="line"/>
      <point x="156" y="36" type="line"/>
      <point x="156" y="590" type="line"/>
      <point x="197" y="625" type="line"/>
      <point x="222" y="625" type="line"/>
    </contour>
  </outline>
</glyph>
<glyph name="asterisk" format="1">
  <advance width="422"/>
  <unicode hex="002A"/>
  <outline>
    <contour>
      <point x="184" y="496" type="line"/>
      <point x="169" y="288" type="line"/>
      <point x="253" y="288" type="line"/>
      <point x="238" y="496" type="line"/>
      <point x="253" y="704" type="line"/>
      <point x="169" y="704" type="line"/>
    </contour>
    <contour>
      <point x="225" y="473" type="line"/>
      <point x="412" y="564" type="line"/>
      <point x="370" y="636" type="line"/>
      <point x="197" y="519" type="line"/>
      <point x="10" y="428" type="line"/>
      <point x="52" y="356" type="line"/>
    </contour>
    <contour>
      <point x="198" y="472" type="line"/>
      <point x="370" y="356" type="line"/>
      <point x="412" y="428" type="line"/>
      <point x="224" y="520" type="line"/>
      <point x="52" y="636" type="line"/>
      <point x="10" y="564" type="line"/>
    </contour>
  </outline>
</glyph>
<glyph name="comma" format="1">
  <advance width="150"/>
  <unicode hex="002C"/>
  <outline>
    <contour>
      <point x="11" y="97" type="line"/>
      <point x="11" y="28" type="line"/>
      <point x="39" y="0" type="line"/>
      <point x="83" y="0" type="line"/>
      <point x="83" y="-5" type="line"/>
      <point x="61" y="-40" type="line"/>
      <point x="10" y="-63" type="line"/>
      <point x="10" y="-96" type="line"/>
      <point x="100" y="-62" type="line"/>
      <point x="140" y="-9" type="line"/>
      <point x="140" y="97" type="line"/>
      <point x="112" y="124" type="line"/>
      <point x="39" y="124" type="line"/>
    </contour>
  </outline>
</glyph>
<glyph name="hyphen" format="1">
  <advance width="280"/>
  <unicode hex="002D"/>
  <outline>
    <contour>
      <point x="10" y="272" type="line"/>
      <point x="270" y="272" type="line"/>
      <point x="270" y="345" type="line"/>
      <point x="10" y="345" type="line"/>
    </contour>
  </outline>
</glyph>
<glyph name="period" format="1">
  <advance width="149"/>
  <unicode hex="002E"/>
  <outline>
    <contour>
      <point x="10" y="97" type="line"/>
      <point x="10" y="28" type="line"/>
      <point x="38" y="0" type="line"/>
      <point x="111" y="0" type="line"/>
      <point x="139" y="28" type="line"/>
      <point x="139" y="97" type="line"/>
      <point x="111" y="124" type="line"/>
      <point x="38" y="124" type="line"/>
    </contour>
  </outline>
</glyph>
<glyph name="slash" format="1">
  <advance width="222"/>
  <unicode hex="002F"/>
  <outline>
    <contour>
      <point x="160" y="700" type="line"/>
      <point x="-40" y="-150" type="line"/>
      <point x="62" y="-150" type="line"/>
      <point x="262" y="700" type="line"/>
    </contour>
  </outline>
</glyph>
<glyph name="zero" format="1">
  <advance width="430"/>
  <unicode hex="0030"/>
  <outline>
    <contour>
      <point x="144" y="700" type="line"/>
      <point x="41" y="611" type="line"/>
      <point x="41" y="89" type="line"/>
      <point x="144" y="0" type="line"/>
      <point x="224" y="0" type="line"/>
      <point x="224" y="80" type="line"/>
      <point x="190" y="80" type="line"/>
      <point x="156" y="111" type="line"/>
      <point x="156" y="594" type="line"/>
      <point x="190" y="625" type="line"/>
      <point x="264" y="625" type="line"/>
      <point x="264" y="700" type="line"/>
    </contour>
    <contour>
      <point x="219" y="700" type="line"/>
      <point x="219" y="625" type="line"/>
      <point x="240" y="625" type="line"/>
      <point x="274" y="594" type="line"/>
      <point x="274" y="111" type="line"/>
      <point x="239" y="80" type="line"/>
      <point x="219" y="80" type="line"/>
      <point x="219" y="0" type="line"/>
      <point x="285" y="0" type="line"/>
      <point x="389" y="89" type="line"/>
      <point x="389" y="611" type="line"/>
      <point x="285" y="700" type="line"/>
    </contour>
  </outline>
</glyph>
<glyph name="one" format="1">
  <advance width="235"/>
  <unicode hex="0031"/>
  <outline>
    <contour>
      <point x="65" y="614" type="line"/>
      <point x="65" y="0" type="line"/>
      <point x="180" y="0" type="line"/>
      <point x="180" y="700" type="line"/>
      <point x="59" y="700" type="line"/>
      <point x="35" y="625" type="line"/>
      <point x="35" y="614" type="line"/>
    </contour>
  </outline>
</glyph>
<glyph name="two" format="1">
  <advance width="380"/>
  <unicode hex="0032"/>
  <outline>
    <contour>
      <point x="132" y="700" type="line"/>
      <point x="34" y="618" type="line"/>
      <point x="34" y="478" type="line"/>
      <point x="140" y="478" type="line"/>
      <point x="140" y="594" type="line"/>
      <point x="168" y="620" type="line"/>
      <point x="209" y="620" type="line"/>
      <point x="237" y="594" type="line"/>
      <point x="237" y="481" type="line"/>
      <point x="227" y="456" type="line"/>
      <point x="32" y="185" type="line"/>
      <point x="32" y="69" type="line"/>
      <point x="109" y="0" type="line"/>
      <point x="334" y="0" type="line"/>
      <point x="339" y="91" type="line"/>
      <point x="171" y="91" type="line"/>
      <point x="150" y="111" type="line"/>
      <point x="150" y="159" type="line"/>
      <point x="161" y="183" type="line"/>
      <point x="304" y="379" type="line"/>
      <point x="348" y="473" type="line"/>
      <point x="348" y="611" type="line"/>
      <point x="248" y="700" type="line"/>
    </contour>
  </outline>
</glyph>
<glyph name="three" format="1">
  <advance width="395"/>
  <unicode hex="0033"/>
  <outline>
    <contour>
      <point x="129" y="420" type="line"/>
      <point x="129" y="343" type="line"/>
      <point x="214" y="343" type="line"/>
      <point x="249" y="311" type="line"/>
      <point x="249" y="115" type="line"/>
      <point x="212" y="81" type="line"/>
      <point x="156" y="81" type="line"/>
      <point x="139" y="0" type="line"/>
      <point x="260" y="0" type="line"/>
      <point x="364" y="89" type="line"/>
      <point x="364" y="329" type="line"/>
      <point x="260" y="418" type="line"/>
    </contour>
    <contour>
      <point x="33" y="210" type="line"/>
      <point x="33" y="84" type="line"/>
      <point x="139" y="0" type="line"/>
      <point x="174" y="81" type="line"/>
      <point x="135" y="114" type="line"/>
      <point x="135" y="210" type="line"/>
    </contour>
    <contour>
      <point x="35" y="620" type="line"/>
      <point x="35" y="491" type="line"/>
      <point x="135" y="491" type="line"/>
      <point x="135" y="594" type="line"/>
      <point x="172" y="627" type="line"/>
      <point x="127" y="700" type="line"/>
    </contour>
    <contour>
      <point x="127" y="700" type="line"/>
      <point x="149" y="625" type="line"/>
      <point x="209" y="625" type="line"/>
      <point x="242" y="594" type="line"/>
      <point x="242" y="456" type="line"/>
      <point x="206" y="423" type="line"/>
      <point x="129" y="423" type="line"/>
      <point x="129" y="360" type="line"/>
      <point x="253" y="360" type="line"/>
      <point x="357" y="449" type="line"/>
      <point x="357" y="618" type="line"/>
      <point x="260" y="700" type="line"/>
    </contour>
  </outline>
</glyph>
<glyph name="four" format="1">
  <advance width="380"/>
  <unicode hex="0034"/>
  <outline>
    <contour>
      <point x="171" y="700" type="line"/>
      <point x="20" y="312" type="line"/>
      <point x="20" y="255" type="line"/>
      <point x="70" y="166" type="line"/>
      <point x="375" y="166" type="line"/>
      <point x="380" y="247" type="line"/>
      <point x="144" y="247" type="line"/>
      <point x="128" y="271" type="line"/>
      <point x="128" y="289" type="line"/>
      <point x="180" y="495" type="line"/>
      <point x="195" y="582" type="line"/>
      <point x="237" y="600" type="line"/>
      <point x="237" y="700" type="line"/>
    </contour>
    <component base="I" xOffset="148"/>
  </outline>
</glyph>
<glyph name="five" format="1">
  <advance width="373"/>
  <unicode hex="0035"/>
  <outline>
    <contour>
      <point x="40" y="700" type="line"/>
      <point x="40" y="394" type="line"/>
      <point x="93" y="340" type="line"/>
      <point x="194" y="340" type="line"/>
      <point x="223" y="315" type="line"/>
      <point x="223" y="106" type="line"/>
      <point x="195" y="81" type="line"/>
      <point x="161" y="81" type="line"/>
      <point x="141" y="100" type="line"/>
      <point x="141" y="249" type="line"/>
      <point x="32" y="249" type="line"/>
      <point x="32" y="74" type="line"/>
      <point x="125" y="0" type="line"/>
      <point x="239" y="0" type="line"/>
      <point x="341" y="89" type="line"/>
      <point x="341" y="356" type="line"/>
      <point x="262" y="427" type="line"/>
      <point x="151" y="427" type="line"/>
      <point x="151" y="612" type="line"/>
      <point x="317" y="612" type="line"/>
      <point x="326" y="700" type="line"/>
    </contour>
  </outline>
</glyph>
<glyph name="six" format="1">
  <advance width="406"/>
  <unicode hex="0036"/>
  <outline>
    <contour>
      <point x="187" y="427" type="line"/>
      <point x="147" y="386" type="line"/>
      <point x="147" y="320" type="line"/>
      <point x="176" y="347" type="line"/>
      <point x="225" y="347" type="line"/>
      <point x="259" y="317" type="line"/>
      <point x="259" y="113" type="line"/>
      <point x="225" y="81" type="line"/>
      <point x="163" y="81" type="line"/>
      <point x="146" y="0" type="line"/>
      <point x="270" y="0" type="line"/>
      <point x="374" y="89" type="line"/>
      <point x="374" y="338" type="line"/>
      <point x="270" y="427" type="line"/>
    </contour>
    <contour>
      <point x="41" y="210" type="line"/>
      <point x="41" y="84" type="line"/>
      <point x="146" y="0" type="line"/>
      <point x="191" y="81" type="line"/>
      <point x="157" y="110" type="line"/>
      <point x="157" y="210" type="line"/>
    </contour>
    <contour>
      <point x="233" y="627" type="line"/>
      <point x="264" y="600" type="line"/>
      <point x="264" y="491" type="line"/>
      <point x="364" y="491" type="line"/>
      <point x="364" y="620" type="line"/>
      <point x="272" y="700" type="line"/>
    </contour>
    <contour>
      <point x="41" y="611" type="line"/>
      <point x="41" y="167" type="line"/>
      <point x="157" y="74" type="line"/>
      <point x="157" y="596" type="line"/>
      <point x="191" y="625" type="line"/>
      <point x="250" y="625" type="line"/>
      <point x="272" y="700" type="line"/>
      <point x="146" y="700" type="line"/>
    </contour>
  </outline>
</glyph>
<glyph name="seven" format="1">
  <advance width="357"/>
  <unicode hex="0037"/>
  <outline>
    <contour>
      <point x="226" y="700" type="line"/>
      <point x="200" y="586" type="line"/>
      <point x="83" y="30" type="line"/>
      <point x="83" y="0" type="line"/>
      <point x="176" y="0" type="line"/>
      <point x="214" y="180" type="line"/>
      <point x="323" y="670" type="line"/>
      <point x="323" y="700" type="line"/>
    </contour>
    <contour>
      <point x="42" y="700" type="line"/>
      <point x="33" y="612" type="line"/>
      <point x="160" y="615" type="line"/>
      <point x="256" y="615" type="line"/>
      <point x="256" y="700" type="line"/>
    </contour>
  </outline>
</glyph>
<glyph name="eight" format="1">
  <advance width="419"/>
  <unicode hex="0038"/>
  <outline>
    <contour>
      <point x="153" y="417" type="line"/>
      <point x="153" y="343" type="line"/>
      <point x="239" y="343" type="line"/>
      <point x="273" y="312" type="line"/>
      <point x="273" y="113" type="line"/>
      <point x="239" y="81" type="line"/>
      <point x="175" y="81" type="line"/>
      <point x="163" y="0" type="line"/>
      <point x="284" y="0" type="line"/>
      <point x="388" y="89" type="line"/>
      <point x="388" y="328" type="line"/>
      <point x="284" y="417" type="line"/>
    </contour>
    <contour>
      <point x="135" y="417" type="line"/>
      <point x="31" y="328" type="line"/>
      <point x="31" y="89" type="line"/>
      <point x="135" y="0" type="line"/>
      <point x="256" y="0" type="line"/>
      <point x="244" y="81" type="line"/>
      <point x="180" y="81" type="line"/>
      <point x="146" y="113" type="line"/>
      <point x="146" y="312" type="line"/>
      <point x="180" y="343" type="line"/>
      <point x="266" y="343" type="line"/>
      <point x="266" y="417" type="line"/>
    </contour>
    <contour>
      <point x="142" y="700" type="line"/>
      <point x="38" y="611" type="line"/>
      <point x="38" y="447" type="line"/>
      <point x="142" y="358" type="line"/>
      <point x="266" y="358" type="line"/>
      <point x="266" y="418" type="line"/>
      <point x="187" y="418" type="line"/>
      <point x="153" y="448" type="line"/>
      <point x="153" y="594" type="line"/>
      <point x="187" y="625" type="line"/>
      <point x="246" y="625" type="line"/>
      <point x="268" y="700" type="line"/>
    </contour>
    <contour>
      <point x="151" y="700" type="line"/>
      <point x="173" y="625" type="line"/>
      <point x="232" y="625" type="line"/>
      <point x="266" y="594" type="line"/>
      <point x="266" y="448" type="line"/>
      <point x="232" y="418" type="line"/>
      <point x="153" y="418" type="line"/>
      <point x="153" y="358" type="line"/>
      <point x="277" y="358" type="line"/>
      <point x="381" y="447" type="line"/>
      <point x="381" y="611" type="line"/>
      <point x="277" y="700" type="line"/>
    </contour>
  </outline>
</glyph>
<glyph name="nine" format="1">
  <advance width="406"/>
  <unicode hex="0039"/>
  <outline>
    <contour>
      <point x="214" y="273" type="line"/>
      <point x="259" y="313" type="line"/>
      <point x="259" y="371" type="line"/>
      <point x="232" y="347" type="line"/>
      <point x="174" y="347" type="line"/>
      <point x="147" y="372" type="line"/>
      <point x="147" y="591" type="line"/>
      <point x="178" y="619" type="line"/>
      <point x="243" y="619" type="line"/>
      <point x="260" y="700" type="line"/>
      <point x="136" y="700" type="line"/>
      <point x="32" y="611" type="line"/>
      <point x="32" y="358" type="line"/>
      <point x="132" y="273" type="line"/>
    </contour>
    <contour>
      <point x="365" y="490" type="line"/>
      <point x="365" y="616" type="line"/>
      <point x="260" y="700" type="line"/>
      <point x="218" y="619" type="line"/>
      <point x="249" y="594" type="line"/>
      <point x="249" y="490" type="line"/>
    </contour>
    <contour>
      <point x="169" y="73" type="line"/>
      <point x="142" y="96" type="line"/>
      <point x="142" y="209" type="line"/>
      <point x="42" y="209" type="line"/>
      <point x="42" y="80" type="line"/>
      <point x="134" y="0" type="line"/>
    </contour>
    <contour>
      <point x="365" y="89" type="line"/>
      <point x="365" y="533" type="line"/>
      <point x="249" y="626" type="line"/>
      <point x="249" y="100" type="line"/>
      <point x="220" y="75" type="line"/>
      <point x="156" y="75" type="line"/>
      <point x="134" y="0" type="line"/>
      <point x="272" y="0" type="line"/>
    </contour>
  </outline>
</glyph>
<glyph name="question" format="1">
  <advance width="367"/>
  <unicode hex="003F"/>
  <outline>
    <contour>
      <point x="118" y="700" type="line"/>
      <point x="20" y="621" type="line"/>
      <point x="20" y="478" type="line"/>
      <point x="121" y="478" type="line"/>
      <point x="121" y="593" type="line"/>
      <point x="151" y="620" type="line"/>
      <point x="194" y="620" type="line"/>
      <point x="224" y="594" type="line"/>
      <point x="224" y="480" type="line"/>
      <point x="213" y="455" type="line"/>
      <point x="136" y="370" type="line"/>
      <point x="105" y="305" type="line"/>
      <point x="115" y="210" type="line"/>
      <point x="208" y="210" type="line"/>
      <point x="218" y="285" type="line"/>
      <point x="229" y="309" type="line"/>
      <point x="291" y="372" type="line"/>
      <point x="335" y="466" type="line"/>
      <point x="335" y="611" type="line"/>
      <point x="235" y="700" type="line"/>
    </contour>
    <component base="period" xOffset="92"/>
  </outline>
</glyph>
<glyph name="at" format="1">
  <advance width="704"/>
  <unicode hex="0040"/>
  <outline>
    <contour>
      <point x="559" y="700" type="line"/>
      <point x="144" y="700" type="line"/>
      <point x="41" y="611" type="line"/>
      <point x="41" y="89" type="line"/>
      <point x="144" y="0" type="line"/>
      <point x="559" y="0" type="line"/>
      <point x="663" y="89" type="line"/>
      <point x="663" y="611" type="line"/>
    </contour>
    <contour>
      <point x="548" y="116" type="line"/>
      <point x="507" y="80" type="line"/>
      <point x="197" y="80" type="line"/>
      <point x="156" y="116" type="line"/>
      <point x="156" y="590" type="line"/>
      <point x="197" y="625" type="line"/>
      <point x="507" y="625" type="line"/>
      <point x="548" y="590" type="line"/>
    </contour>
    <component base="a" xOffset="188" yOffset="144" xScale="0.837" yScale="0.837"/>
  </outline>
</glyph>
<glyph name="A" format="1">
  <advance width="405"/>
  <unicode hex="0041"/>
  <outline>
    <contour>
      <point x="155" y="700" type="line"/>
      <point x="169" y="649" type="line"/>
      <point x="209" y="597" type="line"/>
      <point x="229" y="382" type="line"/>
      <point x="276" y="0" type="line"/>
      <point x="391" y="0" type="line"/>
      <point x="292" y="700" type="line"/>
    </contour>
    <contour>
      <point x="120" y="157" type="line"/>
      <point x="296" y="157" type="line"/>
      <point x="286" y="272" type="line"/>
      <point x="231" y="232" type="line"/>
      <point x="173" y="232" type="line"/>
      <point x="130" y="272" type="line"/>
    </contour>
    <contour>
      <point x="112" y="700" type="line"/>
      <point x="14" y="0" type="line"/>
      <point x="129" y="0" type="line"/>
      <point x="175" y="382" type="line"/>
      <point x="195" y="597" type="line"/>
      <point x="233" y="649" type="line"/>
      <point x="249" y="700" type="line"/>
    </contour>
    <contour>
      <point x="391" y="0" type="move" name="ogonek"/>
    </contour>
    <contour>
      <point x="203" y="700" type="move" name="top"/>
    </contour>
  </outline>
</glyph>
<glyph name="B" format="1">
  <advance width="431"/>
  <unicode hex="0042"/>
  <outline>
    <contour>
      <point x="148" y="700" type="line"/>
      <point x="148" y="625" type="line"/>
      <point x="248" y="625" type="line"/>
      <point x="277" y="600" type="line"/>
      <point x="277" y="443" type="line"/>
      <point x="248" y="417" type="line"/>
      <point x="148" y="417" type="line"/>
      <point x="148" y="357" type="line"/>
      <point x="288" y="357" type="line"/>
      <point x="392" y="446" type="line"/>
      <point x="392" y="611" type="line"/>
      <point x="288" y="700" type="line"/>
    </contour>
    <contour>
      <point x="155" y="416" type="line"/>
      <point x="155" y="342" type="line"/>
      <point x="255" y="342" type="line"/>
      <point x="284" y="317" type="line"/>
      <point x="284" y="106" type="line"/>
      <point x="255" y="80" type="line"/>
      <point x="155" y="80" type="line"/>
      <point x="155" y="0" type="line"/>
      <point x="295" y="0" type="line"/>
      <point x="399" y="89" type="line"/>
      <point x="399" y="327" type="line"/>
      <point x="295" y="416" type="line"/>
    </contour>
    <component base="I"/>
  </outline>
</glyph>
<glyph name="C" format="1">
  <advance width="419"/>
  <unicode hex="0043"/>
  <outline>
    <contour>
      <point x="145" y="700" type="line"/>
      <point x="42" y="611" type="line"/>
      <point x="42" y="89" type="line"/>
      <point x="145" y="0" type="line"/>
      <point x="286" y="0" type="line"/>
      <point x="390" y="86" type="line"/>
      <point x="390" y="254" type="line"/>
      <point x="282" y="254" type="line"/>
      <point x="282" y="116" type="line"/>
      <point x="244" y="81" type="line"/>
      <point x="196" y="81" type="line"/>
      <point x="157" y="116" type="line"/>
      <point x="157" y="586" type="line"/>
      <point x="196" y="620" type="line"/>
      <point x="244" y="620" type="line"/>
      <point x="283" y="586" type="line"/>
      <point x="283" y="464" type="line"/>
      <point x="390" y="464" type="line"/>
      <point x="390" y="614" type="line"/>
      <point x="289" y="700" type="line"/>
    </contour>
    <contour>
      <point x="231" y="700" type="move" name="top"/>
    </contour>
    <contour>
      <point x="210" y="0" type="move" name="bottom"/>
    </contour>
  </outline>
</glyph>
<glyph name="D" format="1">
  <advance width="433"/>
  <unicode hex="0044"/>
  <outline>
    <contour>
      <point x="148" y="700" type="line"/>
      <point x="148" y="625" type="line"/>
      <point x="247" y="625" type="line"/>
      <point x="277" y="599" type="line"/>
      <point x="277" y="107" type="line"/>
      <point x="247" y="80" type="line"/>
      <point x="148" y="80" type="line"/>
      <point x="148" y="0" type="line"/>
      <point x="288" y="0" type="line"/>
      <point x="392" y="89" type="line"/>
      <point x="392" y="611" type="line"/>
      <point x="288" y="700" type="line"/>
    </contour>
    <component base="I"/>
    <contour>
      <point x="217" y="350" type="move" name="center"/>
    </contour>
    <contour>
      <point x="217" y="700" type="move" name="top"/>
    </contour>
  </outline>
</glyph>
<glyph name="E" format="1">
  <advance width="340"/>
  <unicode hex="0045"/>
  <outline>
    <contour>
      <point x="124" y="349" type="line"/>
      <point x="294" y="344" type="line"/>
      <point x="294" y="434" type="line"/>
      <point x="124" y="429" type="line"/>
    </contour>
    <contour>
      <point x="124" y="615" type="line"/>
      <point x="215" y="615" type="line"/>
      <point x="309" y="609" type="line"/>
      <point x="303" y="700" type="line"/>
      <point x="124" y="700" type="line"/>
    </contour>
    <contour>
      <point x="124" y="0" type="line"/>
      <point x="303" y="0" type="line"/>
      <point x="312" y="91" type="line"/>
      <point x="210" y="85" type="line"/>
      <point x="124" y="85" type="line"/>
    </contour>
    <component base="I"/>
    <contour>
      <point x="306" y="10" type="move" name="ogonek"/>
    </contour>
    <contour>
      <point x="170" y="0" type="move" name="bottom"/>
    </contour>
    <contour>
      <point x="193" y="700" type="move" name="top"/>
    </contour>
  </outline>
</glyph>
<glyph name="F" format="1">
  <advance width="336"/>
  <unicode hex="0046"/>
  <outline>
    <contour>
      <point x="124" y="331" type="line"/>
      <point x="294" y="326" type="line"/>
      <point x="294" y="416" type="line"/>
      <point x="124" y="411" type="line"/>
    </contour>
    <contour>
      <point x="124" y="617" type="line"/>
      <point x="215" y="617" type="line"/>
      <point x="308" y="617" type="line"/>
      <point x="303" y="700" type="line"/>
      <point x="124" y="700" type="line"/>
    </contour>
    <component base="I"/>
  </outline>
</glyph>
<glyph name="G" format="1">
  <advance width="418"/>
  <unicode hex="0047"/>
  <outline>
    <contour>
      <point x="368" y="384" type="line"/>
      <point x="228" y="384" type="line"/>
      <point x="228" y="374" type="line"/>
      <point x="271" y="318" type="line"/>
      <point x="271" y="107" type="line"/>
      <point x="242" y="80" type="line"/>
      <point x="185" y="80" type="line"/>
      <point x="156" y="107" type="line"/>
      <point x="156" y="599" type="line"/>
      <point x="185" y="625" type="line"/>
      <point x="245" y="625" type="line"/>
      <point x="274" y="599" type="line"/>
      <point x="274" y="483" type="line"/>
      <point x="381" y="483" type="line"/>
      <point x="381" y="618" type="line"/>
      <point x="285" y="700" type="line"/>
      <point x="144" y="700" type="line"/>
      <point x="41" y="611" type="line"/>
      <point x="41" y="89" type="line"/>
      <point x="144" y="0" type="line"/>
      <point x="278" y="0" type="line"/>
      <point x="379" y="89" type="line"/>
      <point x="379" y="368" type="line"/>
    </contour>
    <contour>
      <point x="212" y="700" type="move" name="top"/>
    </contour>
    <contour>
      <point x="212" y="0" type="move" name="bottom"/>
    </contour>
  </outline>
</glyph>
<glyph name="H" format="1">
  <advance width="440"/>
  <unicode hex="0048"/>
  <outline>
    <contour>
      <point x="124" y="337" type="line"/>
      <point x="309" y="337" type="line"/>
      <point x="309" y="427" type="line"/>
      <point x="124" y="427" type="line"/>
    </contour>
    <component base="I"/>
    <component base="I" xOffset="215"/>
    <contour>
      <point x="220" y="350" type="move" name="center"/>
    </contour>
    <contour>
      <point x="220" y="700" type="move" name="top"/>
    </contour>
  </outline>
</glyph>
<glyph name="I" format="1">
  <advance width="225"/>
  <unicode hex="0049"/>
  <outline>
    <contour>
      <point x="55" y="700" type="line"/>
      <point x="55" y="0" type="line"/>
      <point x="170" y="0" type="line"/>
      <point x="170" y="700" type="line"/>
    </contour>
    <contour>
      <point x="113" y="700" type="move" name="top"/>
    </contour>
    <contour>
      <point x="202" y="10" type="move" name="ogonek"/>
    </contour>
  </outline>
</glyph>
<glyph name="J" format="1">
  <advance width="380"/>
  <unicode hex="004A"/>
  <outline>
    <contour>
      <point x="219" y="700" type="line"/>
      <point x="219" y="106" type="line"/>
      <point x="190" y="81" type="line"/>
      <point x="139" y="81" type="line"/>
      <point x="110" y="106" type="line"/>
      <point x="110" y="210" type="line"/>
      <point x="3" y="210" type="line"/>
      <point x="3" y="80" type="line"/>
      <point x="109" y="0" type="line"/>
      <point x="231" y="0" type="line"/>
      <point x="334" y="89" type="line"/>
      <point x="334" y="700" type="line"/>
    </contour>
    <contour>
      <point x="193" y="700" type="move" name="top"/>
    </contour>
  </outline>
</glyph>
<glyph name="K" format="1">
  <advance width="404"/>
  <unicode hex="004B"/>
  <outline>
    <contour>
      <point x="267" y="700" type="line"/>
      <point x="188" y="408" type="line"/>
      <point x="164" y="389" type="line"/>
      <point x="164" y="271" type="line"/>
      <point x="284" y="373" type="line"/>
      <point x="386" y="700" type="line"/>
    </contour>
    <contour>
      <point x="186" y="359" type="line"/>
      <point x="279" y="0" type="line"/>
      <point x="402" y="0" type="line"/>
      <point x="271" y="427" type="line"/>
    </contour>
    <component base="I"/>
    <contour>
      <point x="202" y="700" type="move" name="top"/>
    </contour>
    <contour>
      <point x="202" y="0" type="move" name="bottom"/>
    </contour>
  </outline>
</glyph>
<glyph name="L" format="1">
  <advance width="323"/>
  <unicode hex="004C"/>
  <outline>
    <contour>
      <point x="137" y="78" type="line"/>
      <point x="136" y="0" type="line"/>
      <point x="310" y="0" type="line"/>
      <point x="320" y="91" type="line"/>
    </contour>
    <component base="I"/>
    <contour>
      <point x="171" y="700" type="move" name="top"/>
    </contour>
    <contour>
      <point x="217" y="0" type="move" name="bottom"/>
    </contour>
    <contour>
      <point x="322" y="700" type="move" name="topright"/>
    </contour>
  </outline>
</glyph>
<glyph name="M" format="1">
  <advance width="607"/>
  <unicode hex="004D"/>
  <outline>
    <contour>
      <point x="122" y="700" type="line"/>
      <point x="136" y="658" type="line"/>
      <point x="176" y="591" type="line"/>
      <point x="206" y="382" type="line"/>
      <point x="253" y="0" type="line"/>
      <point x="328" y="0" type="line"/>
      <point x="239" y="700" type="line"/>
    </contour>
    <contour>
      <point x="55" y="700" type="line"/>
      <point x="55" y="0" type="line"/>
      <point x="162" y="0" type="line"/>
      <point x="162" y="382" type="line"/>
      <point x="165" y="591" type="line"/>
      <point x="200" y="658" type="line"/>
      <point x="216" y="700" type="line"/>
    </contour>
    <contour>
      <point x="395" y="700" type="line"/>
      <point x="409" y="658" type="line"/>
      <point x="446" y="591" type="line"/>
      <point x="445" y="382" type="line"/>
      <point x="445" y="0" type="line"/>
      <point x="552" y="0" type="line"/>
      <point x="552" y="700" type="line"/>
    </contour>
    <contour>
      <point x="372" y="700" type="line"/>
      <point x="274" y="0" type="line"/>
      <point x="349" y="0" type="line"/>
      <point x="405" y="382" type="line"/>
      <point x="435" y="591" type="line"/>
      <point x="473" y="658" type="line"/>
      <point x="489" y="700" type="line"/>
    </contour>
  </outline>
</glyph>
<glyph name="N" format="1">
  <advance width="445"/>
  <unicode hex="004E"/>
  <outline>
    <contour>
      <point x="279" y="700" type="line"/>
      <point x="279" y="411" type="line"/>
      <point x="283" y="349" type="line"/>
      <point x="277" y="339" type="line"/>
      <point x="268" y="348" type="line"/>
      <point x="254" y="415" type="line"/>
      <point x="166" y="700" type="line"/>
      <point x="51" y="700" type="line"/>
      <point x="51" y="0" type="line"/>
      <point x="166" y="0" type="line"/>
      <point x="166" y="391" type="line"/>
      <point x="163" y="477" type="line"/>
      <point x="168" y="489" type="line"/>
      <point x="177" y="479" type="line"/>
      <point x="196" y="396" type="line"/>
      <point x="279" y="103" type="line"/>
      <point x="279" y="0" type="line"/>
      <point x="394" y="0" type="line"/>
      <point x="394" y="700" type="line"/>
    </contour>
    <contour>
      <point x="223" y="700" type="move" name="top"/>
    </contour>
    <contour>
      <point x="223" y="0" type="move" name="bottom"/>
    </contour>
  </outline>
</glyph>
<glyph name="O" format="1">
  <advance width="444"/>
  <unicode hex="004F"/>
  <outline>
    <contour>
      <point x="299" y="700" type="line"/>
      <point x="144" y="700" type="line"/>
      <point x="41" y="611" type="line"/>
      <point x="41" y="89" type="line"/>
      <point x="144" y="0" type="line"/>
      <point x="299" y="0" type="line"/>
      <point x="403" y="89" type="line"/>
      <point x="403" y="611" type="line"/>
    </contour>
    <contour>
      <point x="288" y="116" type="line"/>
      <point x="247" y="80" type="line"/>
      <point x="197" y="80" type="line"/>
      <point x="156" y="116" type="line"/>
      <point x="156" y="590" type="line"/>
      <point x="197" y="625" type="line"/>
      <point x="247" y="625" type="line"/>
      <point x="288" y="590" type="line"/>
    </contour>
  </outline>
</glyph>
<glyph name="P" format="1">
  <advance width="397"/>
  <unicode hex="0050"/>
  <outline>
    <contour>
      <point x="106" y="700" type="line"/>
      <point x="106" y="630" type="line"/>
      <point x="224" y="630" type="line"/>
      <point x="255" y="603" type="line"/>
      <point x="255" y="421" type="line"/>
      <point x="222" y="367" type="line"/>
      <point x="123" y="307" type="line"/>
      <point x="123" y="202" type="line"/>
      <point x="289" y="300" type="line"/>
      <point x="370" y="395" type="line"/>
      <point x="370" y="611" type="line"/>
      <point x="266" y="700" type="line"/>
    </contour>
    <component base="I"/>
  </outline>
</glyph>
<glyph name="Q" format="1">
  <advance width="444"/>
  <unicode hex="0051"/>
  <outline>
    <contour>
      <point x="144" y="700" type="line"/>
      <point x="41" y="611" type="line"/>
      <point x="41" y="89" type="line"/>
      <point x="144" y="0" type="line"/>
      <point x="273" y="0" type="line"/>
      <point x="398" y="110" type="line"/>
      <point x="398" y="611" type="line"/>
      <point x="294" y="700" type="line"/>
    </contour>
    <contour>
      <point x="181" y="279" type="line"/>
      <point x="110" y="215" type="line"/>
      <point x="148" y="182" type="line"/>
      <point x="177" y="208" type="line"/>
      <point x="197" y="208" type="line"/>
      <point x="216" y="200" type="line"/>
      <point x="232" y="182" type="line"/>
      <point x="246" y="42" type="line"/>
      <point x="337" y="-70" type="line"/>
      <point x="396" y="-70" type="line"/>
      <point x="417" y="51" type="line"/>
      <point x="372" y="51" type="line"/>
      <point x="361" y="62" type="line"/>
      <point x="345" y="221" type="line"/>
      <point x="247" y="279" type="line"/>
    </contour>
    <contour>
      <point x="283" y="598" type="line"/>
      <point x="283" y="123" type="line"/>
      <point x="235" y="80" type="line"/>
      <point x="187" y="80" type="line"/>
      <point x="156" y="107" type="line"/>
      <point x="156" y="598" type="line"/>
      <point x="187" y="625" type="line"/>
      <point x="252" y="625" type="line"/>
    </contour>
  </outline>
</glyph>
<glyph name="R" format="1">
  <advance width="423"/>
  <unicode hex="0052"/>
  <outline>
    <contour>
      <point x="115" y="700" type="line"/>
      <point x="115" y="620" type="line"/>
      <point x="215" y="620" type="line"/>
      <point x="256" y="585" type="line"/>
      <point x="256" y="413" type="line"/>
      <point x="241" y="381" type="line"/>
      <point x="158" y="298" type="line"/>
      <point x="159" y="181" type="line"/>
      <point x="223" y="238" type="line"/>
      <point x="300" y="309" type="line"/>
      <point x="340" y="352" type="line"/>
      <point x="371" y="416" type="line"/>
      <point x="371" y="611" type="line"/>
      <point x="267" y="700" type="line"/>
    </contour>
    <contour>
      <point x="223" y="238" type="line"/>
      <point x="286" y="0" type="line"/>
      <point x="405" y="0" type="line"/>
      <point x="300" y="309" type="line"/>
    </contour>
    <component base="I"/>
    <contour>
      <point x="214" y="700" type="move" name="top"/>
    </contour>
    <contour>
      <point x="214" y="0" type="move" name="bottom"/>
    </contour>
  </outline>
</glyph>
<glyph name="S" format="1">
  <advance width="386"/>
  <unicode hex="0053"/>
  <outline>
    <contour>
      <point x="130" y="700" type="line"/>
      <point x="40" y="620" type="line"/>
      <point x="40" y="447" type="line"/>
      <point x="94" y="373" type="line"/>
      <point x="209" y="316" type="line"/>
      <point x="238" y="282" type="line"/>
      <point x="238" y="108" type="line"/>
      <point x="207" y="81" type="line"/>
      <point x="173" y="81" type="line"/>
      <point x="142" y="108" type="line"/>
      <point x="142" y="245" type="line"/>
      <point x="27" y="245" type="line"/>
      <point x="27" y="84" type="line"/>
      <point x="122" y="0" type="line"/>
      <point x="261" y="0" type="line"/>
      <point x="356" y="84" type="line"/>
      <point x="356" y="312" type="line"/>
      <point x="297" y="385" type="line"/>
      <point x="175" y="444" type="line"/>
      <point x="151" y="472" type="line"/>
      <point x="151" y="593" type="line"/>
      <point x="182" y="620" type="line"/>
      <point x="220" y="620" type="line"/>
      <point x="251" y="593" type="line"/>
      <point x="251" y="496" type="line"/>
      <point x="359" y="496" type="line"/>
      <point x="359" y="620" type="line"/>
      <point x="269" y="700" type="line"/>
    </contour>
    <contour>
      <point x="191" y="700" type="move" name="top"/>
    </contour>
    <contour>
      <point x="191" y="0" type="move" name="bottom"/>
    </contour>
  </outline>
</glyph>
<glyph name="T" format="1">
  <advance width="351"/>
  <unicode hex="0054"/>
  <outline>
    <contour>
      <point x="16" y="700" type="line"/>
      <point x="3" y="610" type="line"/>
      <point x="176" y="618" type="line"/>
      <point x="348" y="610" type="line"/>
      <point x="335" y="700" type="line"/>
    </contour>
    <component base="I" xOffset="63"/>
    <contour>
      <point x="176" y="700" type="move" name="top"/>
    </contour>
    <contour>
      <point x="176" y="0" type="move" name="bottom"/>
    </contour>
    <contour>
      <point x="176" y="350" type="move" name="center"/>
    </contour>
  </outline>
</glyph>
<glyph name="U" format="1">
  <advance width="439"/>
  <unicode hex="0055"/>
  <outline>
    <contour>
      <point x="278" y="700" type="line"/>
      <point x="278" y="126" type="line"/>
      <point x="229" y="80" type="line"/>
      <point x="210" y="80" type="line"/>
      <point x="161" y="126" type="line"/>
      <point x="161" y="700" type="line"/>
      <point x="46" y="700" type="line"/>
      <point x="46" y="89" type="line"/>
      <point x="149" y="0" type="line"/>
      <point x="289" y="0" type="line"/>
      <point x="393" y="89" type="line"/>
      <point x="393" y="700" type="line"/>
    </contour>
  </outline>
</glyph>
<glyph name="V" format="1">
  <advance width="405"/>
  <unicode hex="0056"/>
  <outline>
    <contour>
      <point x="391" y="700" type="line"/>
      <point x="276" y="700" type="line"/>
      <point x="229" y="318" type="line"/>
      <point x="209" y="109" type="line"/>
      <point x="169" y="42" type="line"/>
      <point x="155" y="0" type="line"/>
      <point x="292" y="0" type="line"/>
    </contour>
    <contour>
      <point x="233" y="42" type="line"/>
      <point x="195" y="109" type="line"/>
      <point x="175" y="318" type="line"/>
      <point x="129" y="700" type="line"/>
      <point x="14" y="700" type="line"/>
      <point x="112" y="0" type="line"/>
      <point x="249" y="0" type="line"/>
    </contour>
  </outline>
</glyph>
<glyph name="W" format="1">
  <advance width="634"/>
  <unicode hex="0057"/>
  <outline>
    <contour>
      <point x="344" y="700" type="line"/>
      <point x="269" y="700" type="line"/>
      <point x="232" y="318" type="line"/>
      <point x="212" y="109" type="line"/>
      <point x="172" y="42" type="line"/>
      <point x="158" y="0" type="line"/>
      <point x="275" y="0" type="line"/>
    </contour>
    <contour>
      <point x="236" y="42" type="line"/>
      <point x="201" y="109" type="line"/>
      <point x="181" y="318" type="line"/>
      <point x="145" y="700" type="line"/>
      <point x="17" y="700" type="line"/>
      <point x="105" y="0" type="line"/>
      <point x="252" y="0" type="line"/>
    </contour>
    <contour>
      <point x="617" y="700" type="line"/>
      <point x="489" y="700" type="line"/>
      <point x="452" y="318" type="line"/>
      <point x="432" y="109" type="line"/>
      <point x="395" y="42" type="line"/>
      <point x="381" y="0" type="line"/>
      <point x="528" y="0" type="line"/>
    </contour>
    <contour>
      <point x="459" y="42" type="line"/>
      <point x="421" y="109" type="line"/>
      <point x="401" y="318" type="line"/>
      <point x="365" y="700" type="line"/>
      <point x="290" y="700" type="line"/>
      <point x="358" y="0" type="line"/>
      <point x="475" y="0" type="line"/>
    </contour>
    <contour>
      <point x="318" y="700" type="move" name="top"/>
    </contour>
  </outline>
</glyph>
<glyph name="X" format="1">
  <advance width="434"/>
  <unicode hex="0058"/>
  <outline>
    <contour>
      <point x="400" y="700" type="line"/>
      <point x="279" y="700" type="line"/>
      <point x="240" y="548" type="line"/>
      <point x="220" y="454" type="line"/>
      <point x="176" y="402" type="line"/>
      <point x="162" y="370" type="line"/>
      <point x="264" y="279" type="line"/>
    </contour>
    <contour>
      <point x="253" y="402" type="line"/>
      <point x="211" y="454" type="line"/>
      <point x="191" y="548" type="line"/>
      <point x="153" y="700" type="line"/>
      <point x="33" y="700" type="line"/>
      <point x="167" y="272" type="line"/>
      <point x="273" y="370" type="line"/>
    </contour>
    <contour>
      <point x="162" y="378" type="line"/>
      <point x="176" y="346" type="line"/>
      <point x="222" y="284" type="line"/>
      <point x="242" y="180" type="line"/>
      <point x="279" y="0" type="line"/>
      <point x="400" y="0" type="line"/>
      <point x="264" y="469" type="line"/>
    </contour>
    <contour>
      <point x="167" y="476" type="line"/>
      <point x="33" y="0" type="line"/>
      <point x="153" y="0" type="line"/>
      <point x="189" y="180" type="line"/>
      <point x="209" y="284" type="line"/>
      <point x="253" y="346" type="line"/>
      <point x="273" y="378" type="line"/>
    </contour>
  </outline>
</glyph>
<glyph name="Y" format="1">
  <advance width="383"/>
  <unicode hex="0059"/>
  <outline>
    <contour>
      <point x="373" y="700" type="line"/>
      <point x="255" y="700" type="line"/>
      <point x="224" y="505" type="line"/>
      <point x="198" y="355" type="line"/>
      <point x="160" y="313" type="line"/>
      <point x="144" y="300" type="line"/>
      <point x="242" y="176" type="line"/>
    </contour>
    <contour>
      <point x="222" y="313" type="line"/>
      <point x="184" y="355" type="line"/>
      <point x="158" y="505" type="line"/>
      <point x="127" y="700" type="line"/>
      <point x="10" y="700" type="line"/>
      <point x="139" y="176" type="line"/>
      <point x="238" y="300" type="line"/>
    </contour>
    <contour>
      <point x="132" y="334" type="line"/>
      <point x="132" y="0" type="line"/>
      <point x="247" y="0" type="line"/>
      <point x="247" y="334" type="line"/>
    </contour>
    <contour>
      <point x="192" y="700" type="move" name="top"/>
    </contour>
  </outline>
</glyph>
<glyph name="Z" format="1">
  <advance width="326"/>
  <unicode hex="005A"/>
  <outline>
    <contour>
      <point x="190" y="700" type="line"/>
      <point x="164" y="586" type="line"/>
      <point x="32" y="30" type="line"/>
      <point x="32" y="0" type="line"/>
      <point x="121" y="0" type="line"/>
      <point x="168" y="180" type="line"/>
      <point x="294" y="670" type="line"/>
      <point x="294" y="700" type="line"/>
    </contour>
    <contour>
      <point x="168" y="85" type="line"/>
      <point x="82" y="85" type="line"/>
      <point x="82" y="0" type="line"/>
      <point x="284" y="0" type="line"/>
      <point x="293" y="91" type="line"/>
    </contour>
    <contour>
      <point x="54" y="700" type="line"/>
      <point x="45" y="612" type="line"/>
      <point x="154" y="615" type="line"/>
      <point x="250" y="615" type="line"/>
      <point x="250" y="700" type="line"/>
    </contour>
  </outline>
</glyph>
<glyph name="bracketleft" format="1">
  <advance width="246"/>
  <unicode hex="005B"/>
  <outline>
    <contour>
      <point x="55" y="700" type="line"/>
      <point x="55" y="-73" type="line"/>
      <point x="170" y="-73" type="line"/>
      <point x="170" y="700" type="line"/>
    </contour>
    <contour>
      <point x="61" y="627" type="line"/>
      <point x="241" y="627" type="line"/>
      <point x="241" y="700" type="line"/>
      <point x="61" y="700" type="line"/>
    </contour>
    <contour>
      <point x="61" y="-73" type="line"/>
      <point x="241" y="-73" type="line"/>
      <point x="241" y="0" type="line"/>
      <point x="61" y="0" type="line"/>
    </contour>
  </outline>
</glyph>
<glyph name="asciicircum" format="1">
  <advance width="295"/>
  <unicode hex="005E"/>
  <outline>
    <contour>
      <point x="79" y="428" type="line"/>
      <point x="149" y="591" type="line"/>
      <point x="149" y="700" type="line"/>
      <point x="128" y="700" type="line"/>
      <point x="0" y="445" type="line"/>
      <point x="0" y="428" type="line"/>
    </contour>
    <contour>
      <point x="295" y="428" type="line"/>
      <point x="295" y="445" type="line"/>
      <point x="166" y="700" type="line"/>
      <point x="145" y="700" type="line"/>
      <point x="145" y="591" type="line"/>
      <point x="216" y="428" type="line"/>
    </contour>
  </outline>
</glyph>
<glyph name="grave" format="1">
  <advance width="218"/>
  <unicode hex="0060"/>
  <outline>
    <component base="acute" xOffset="218" xScale="-1"/>
    <contour>
      <point x="112" y="700" type="move" name="_top"/>
    </contour>
  </outline>
</glyph>
<glyph name="a" format="1">
  <advance width="419"/>
  <unicode hex="0061"/>
  <outline>
    <contour>
      <point x="163" y="500" type="line"/>
      <point x="177" y="453" type="line"/>
      <point x="217" y="409" type="line"/>
      <point x="239" y="293" type="line"/>
      <point x="304" y="0" type="line"/>
      <point x="419" y="0" type="line"/>
      <point x="283" y="500" type="line"/>
    </contour>
    <contour>
      <point x="112" y="107" type="line"/>
      <point x="306" y="107" type="line"/>
      <point x="296" y="222" type="line"/>
      <point x="243" y="182" type="line"/>
      <point x="175" y="182" type="line"/>
      <point x="122" y="222" type="line"/>
    </contour>
    <contour>
      <point x="135" y="500" type="line"/>
      <point x="0" y="0" type="line"/>
      <point x="115" y="0" type="line"/>
      <point x="179" y="293" type="line"/>
      <point x="201" y="409" type="line"/>
      <point x="239" y="453" type="line"/>
      <point x="255" y="500" type="line"/>
    </contour>
    <contour>
      <point x="410" y="0" type="move" name="ogonek"/>
    </contour>
    <contour>
      <point x="211" y="500" type="move" name="top"/>
    </contour>
  </outline>
</glyph>
<glyph name="b" format="1">
  <advance width="426"/>
  <unicode hex="0062"/>
  <outline>
    <contour>
      <point x="145" y="500" type="line"/>
      <point x="145" y="428" type="line"/>
      <point x="232" y="428" type="line"/>
      <point x="269" y="394" type="line"/>
      <point x="269" y="330" type="line"/>
      <point x="232" y="296" type="line"/>
      <point x="145" y="296" type="line"/>
      <point x="145" y="248" type="line"/>
      <point x="291" y="248" type="line"/>
      <point x="380" y="324" type="line"/>
      <point x="380" y="424" type="line"/>
      <point x="289" y="500" type="line"/>
    </contour>
    <contour>
      <point x="151" y="295" type="line"/>
      <point x="151" y="223" type="line"/>
      <point x="238" y="223" type="line"/>
      <point x="276" y="190" type="line"/>
      <point x="276" y="111" type="line"/>
      <point x="238" y="77" type="line"/>
      <point x="151" y="77" type="line"/>
      <point x="151" y="0" type="line"/>
      <point x="296" y="0" type="line"/>
      <point x="386" y="76" type="line"/>
      <point x="386" y="219" type="line"/>
      <point x="296" y="295" type="line"/>
    </contour>
    <contour>
      <point x="53" y="500" type="line"/>
      <point x="53" y="0" type="line"/>
      <point x="164" y="0" type="line"/>
      <point x="164" y="500" type="line"/>
    </contour>
  </outline>
</glyph>
<glyph name="c" format="1">
  <advance width="400"/>
  <unicode hex="0063"/>
  <outline>
    <contour>
      <point x="123" y="500" type="line"/>
      <point x="34" y="415" type="line"/>
      <point x="34" y="86" type="line"/>
      <point x="126" y="0" type="line"/>
      <point x="277" y="0" type="line"/>
      <point x="369" y="80" type="line"/>
      <point x="369" y="210" type="line"/>
      <point x="268" y="210" type="line"/>
      <point x="267" y="115" type="line"/>
      <point x="230" y="81" type="line"/>
      <point x="181" y="81" type="line"/>
      <point x="149" y="116" type="line"/>
      <point x="149" y="383" type="line"/>
      <point x="183" y="420" type="line"/>
      <point x="229" y="420" type="line"/>
      <point x="267" y="390" type="line"/>
      <point x="267" y="300" type="line"/>
      <point x="367" y="300" type="line"/>
      <point x="367" y="428" type="line"/>
      <point x="287" y="500" type="line"/>
    </contour>
  </outline>
</glyph>
<glyph name="d" format="1">
  <advance width="434"/>
  <unicode hex="0064"/>
  <outline>
    <contour>
      <point x="147" y="500" type="line"/>
      <point x="147" y="425" type="line"/>
      <point x="237" y="425" type="line"/>
      <point x="286" y="380" type="line"/>
      <point x="286" y="126" type="line"/>
      <point x="237" y="80" type="line"/>
      <point x="147" y="80" type="line"/>
      <point x="147" y="0" type="line"/>
      <point x="297" y="0" type="line"/>
      <point x="401" y="89" type="line"/>
      <point x="401" y="411" type="line"/>
      <point x="297" y="500" type="line"/>
    </contour>
    <component base="i"/>
    <contour>
      <point x="213" y="250" type="move" name="center"/>
    </contour>
    <contour>
      <point x="214" y="500" type="move" name="top"/>
    </contour>
  </outline>
</glyph>
<glyph name="e" format="1">
  <advance width="338"/>
  <unicode hex="0065"/>
  <outline>
    <contour>
      <point x="124" y="237" type="line"/>
      <point x="294" y="232" type="line"/>
      <point x="294" y="322" type="line"/>
      <point x="124" y="317" type="line"/>
    </contour>
    <contour>
      <point x="124" y="417" type="line"/>
      <point x="215" y="417" type="line"/>
      <point x="308" y="417" type="line"/>
      <point x="303" y="500" type="line"/>
      <point x="124" y="500" type="line"/>
    </contour>
    <contour>
      <point x="124" y="0" type="line"/>
      <point x="303" y="0" type="line"/>
      <point x="312" y="85" type="line"/>
      <point x="210" y="85" type="line"/>
      <point x="124" y="85" type="line"/>
    </contour>
    <contour>
      <point x="53" y="500" type="line"/>
      <point x="53" y="0" type="line"/>
      <point x="168" y="0" type="line"/>
      <point x="168" y="500" type="line"/>
    </contour>
  </outline>
</glyph>
<glyph name="f" format="1">
  <advance width="338"/>
  <unicode hex="0066"/>
  <outline>
    <contour>
      <point x="124" y="221" type="line"/>
      <point x="304" y="216" type="line"/>
      <point x="304" y="306" type="line"/>
      <point x="124" y="301" type="line"/>
    </contour>
    <contour>
      <point x="124" y="417" type="line"/>
      <point x="225" y="417" type="line"/>
      <point x="318" y="417" type="line"/>
      <point x="313" y="500" type="line"/>
      <point x="124" y="500" type="line"/>
    </contour>
    <component base="i"/>
  </outline>
</glyph>
<glyph name="g" format="1">
  <advance width="406"/>
  <unicode hex="0067"/>
  <outline>
    <contour>
      <point x="361" y="277" type="line"/>
      <point x="221" y="277" type="line"/>
      <point x="221" y="267" type="line"/>
      <point x="264" y="211" type="line"/>
      <point x="264" y="116" type="line"/>
      <point x="225" y="80" type="line"/>
      <point x="188" y="80" type="line"/>
      <point x="149" y="117" type="line"/>
      <point x="149" y="387" type="line"/>
      <point x="188" y="425" type="line"/>
      <point x="234" y="425" type="line"/>
      <point x="273" y="398" type="line"/>
      <point x="273" y="316" type="line"/>
      <point x="373" y="316" type="line"/>
      <point x="375" y="438" type="line"/>
      <point x="283" y="500" type="line"/>
      <point x="137" y="500" type="line"/>
      <point x="34" y="411" type="line"/>
      <point x="34" y="89" type="line"/>
      <point x="137" y="0" type="line"/>
      <point x="278" y="0" type="line"/>
      <point x="372" y="80" type="line"/>
      <point x="372" y="261" type="line"/>
    </contour>
  </outline>
</glyph>
<glyph name="h" format="1">
  <advance width="442"/>
  <unicode hex="0068"/>
  <outline>
    <contour>
      <point x="121" y="218" type="line"/>
      <point x="306" y="218" type="line"/>
      <point x="306" y="308" type="line"/>
      <point x="121" y="308" type="line"/>
    </contour>
    <component base="i"/>
    <component base="i" xOffset="227"/>
    <contour>
      <point x="221" y="500" type="move" name="top"/>
    </contour>
    <contour>
      <point x="221" y="250" type="move" name="center"/>
    </contour>
  </outline>
</glyph>
<glyph name="i" format="1">
  <advance width="215"/>
  <unicode hex="0069"/>
  <outline>
    <contour>
      <point x="50" y="500" type="line"/>
      <point x="50" y="0" type="line"/>
      <point x="165" y="0" type="line"/>
      <point x="165" y="500" type="line"/>
    </contour>
  </outline>
</glyph>
<glyph name="j" format="1">
  <advance width="375"/>
  <unicode hex="006A"/>
  <outline>
    <contour>
      <point x="231" y="500" type="line"/>
      <point x="231" y="116" type="line"/>
      <point x="192" y="81" type="line"/>
      <point x="147" y="81" type="line"/>
      <point x="108" y="110" type="line"/>
      <point x="107" y="210" type="line"/>
      <point x="6" y="210" type="line"/>
      <point x="6" y="80" type="line"/>
      <point x="112" y="0" type="line"/>
      <point x="243" y="0" type="line"/>
      <point x="346" y="89" type="line"/>
      <point x="346" y="500" type="line"/>
    </contour>
  </outline>
</glyph>
<glyph name="k" format="1">
  <advance width="389"/>
  <unicode hex="006B"/>
  <outline>
    <contour>
      <point x="258" y="500" type="line"/>
      <point x="179" y="284" type="line"/>
      <point x="159" y="266" type="line"/>
      <point x="159" y="146" type="line"/>
      <point x="269" y="247" type="line"/>
      <point x="373" y="500" type="line"/>
    </contour>
    <contour>
      <point x="170" y="232" type="line"/>
      <point x="272" y="0" type="line"/>
      <point x="389" y="0" type="line"/>
      <point x="253" y="313" type="line"/>
    </contour>
    <contour>
      <point x="50" y="500" type="line"/>
      <point x="50" y="0" type="line"/>
      <point x="165" y="0" type="line"/>
      <point x="165" y="500" type="line"/>
    </contour>
  </outline>
</glyph>
<glyph name="l" format="1">
  <advance width="336"/>
  <unicode hex="006C"/>
  <outline>
    <contour>
      <point x="134" y="88" type="line"/>
      <point x="133" y="0" type="line"/>
      <point x="327" y="0" type="line"/>
      <point x="336" y="88" type="line"/>
    </contour>
    <component base="i"/>
    <contour>
      <point x="168" y="500" type="move" name="top"/>
    </contour>
    <contour>
      <point x="168" y="0" type="move" name="bottom"/>
    </contour>
    <contour>
      <point x="316" y="500" type="move" name="topright"/>
    </contour>
  </outline>
</glyph>
<glyph name="m" format="1">
  <advance width="597"/>
  <unicode hex="006D"/>
  <outline>
    <contour>
      <point x="117" y="500" type="line"/>
      <point x="131" y="458" type="line"/>
      <point x="171" y="397" type="line"/>
      <point x="201" y="262" type="line"/>
      <point x="248" y="0" type="line"/>
      <point x="323" y="0" type="line"/>
      <point x="234" y="500" type="line"/>
    </contour>
    <contour>
      <point x="50" y="500" type="line"/>
      <point x="50" y="0" type="line"/>
      <point x="157" y="0" type="line"/>
      <point x="157" y="262" type="line"/>
      <point x="160" y="397" type="line"/>
      <point x="195" y="458" type="line"/>
      <point x="211" y="500" type="line"/>
    </contour>
    <contour>
      <point x="390" y="500" type="line"/>
      <point x="404" y="458" type="line"/>
      <point x="441" y="397" type="line"/>
      <point x="440" y="262" type="line"/>
      <point x="440" y="0" type="line"/>
      <point x="547" y="0" type="line"/>
      <point x="547" y="500" type="line"/>
    </contour>
    <contour>
      <point x="367" y="500" type="line"/>
      <point x="269" y="0" type="line"/>
      <point x="344" y="0" type="line"/>
      <point x="400" y="262" type="line"/>
      <point x="430" y="397" type="line"/>
      <point x="468" y="458" type="line"/>
      <point x="484" y="500" type="line"/>
    </contour>
  </outline>
</glyph>
<glyph name="n" format="1">
  <advance width="443"/>
  <unicode hex="006E"/>
  <outline>
    <contour>
      <point x="275" y="500" type="line"/>
      <point x="275" y="252" type="line"/>
      <point x="278" y="190" type="line"/>
      <point x="275" y="180" type="line"/>
      <point x="267" y="189" type="line"/>
      <point x="246" y="256" type="line"/>
      <point x="168" y="500" type="line"/>
      <point x="53" y="500" type="line"/>
      <point x="53" y="0" type="line"/>
      <point x="168" y="0" type="line"/>
      <point x="168" y="221" type="line"/>
      <point x="165" y="306" type="line"/>
      <point x="170" y="319" type="line"/>
      <point x="179" y="308" type="line"/>
      <point x="206" y="226" type="line"/>
      <point x="275" y="34" type="line"/>
      <point x="275" y="0" type="line"/>
      <point x="390" y="0" type="line"/>
      <point x="390" y="500" type="line"/>
    </contour>
  </outline>
</glyph>
<glyph name="o" format="1">
  <advance width="442"/>
  <unicode hex="006F"/>
  <outline>
    <contour>
      <point x="40" y="411" type="line"/>
      <point x="40" y="89" type="line"/>
      <point x="143" y="0" type="line"/>
      <point x="223" y="0" type="line"/>
      <point x="223" y="80" type="line"/>
      <point x="196" y="80" type="line"/>
      <point x="155" y="116" type="line"/>
      <point x="155" y="390" type="line"/>
      <point x="196" y="425" type="line"/>
      <point x="223" y="425" type="line"/>
      <point x="223" y="500" type="line"/>
      <point x="143" y="500" type="line"/>
    </contour>
    <contour>
      <point x="218" y="500" type="line"/>
      <point x="218" y="425" type="line"/>
      <point x="246" y="425" type="line"/>
      <point x="287" y="390" type="line"/>
      <point x="287" y="116" type="line"/>
      <point x="246" y="80" type="line"/>
      <point x="218" y="80" type="line"/>
      <point x="218" y="0" type="line"/>
      <point x="298" y="0" type="line"/>
      <point x="402" y="89" type="line"/>
      <point x="402" y="411" type="line"/>
      <point x="298" y="500" type="line"/>
    </contour>
  </outline>
</glyph>
<glyph name="p" format="1">
  <advance width="401"/>
  <unicode hex="0070"/>
  <outline>
    <contour>
      <point x="117" y="500" type="line"/>
      <point x="117" y="430" type="line"/>
      <point x="227" y="430" type="line"/>
      <point x="266" y="395" type="line"/>
      <point x="266" y="290" type="line"/>
      <point x="233" y="237" type="line"/>
      <point x="134" y="177" type="line"/>
      <point x="134" y="82" type="line"/>
      <point x="310" y="183" type="line"/>
      <point x="381" y="285" type="line"/>
      <point x="381" y="411" type="line"/>
      <point x="277" y="500" type="line"/>
    </contour>
    <contour>
      <point x="50" y="500" type="line"/>
      <point x="50" y="0" type="line"/>
      <point x="165" y="0" type="line"/>
      <point x="165" y="500" type="line"/>
    </contour>
  </outline>
</glyph>
<glyph name="q" format="1">
  <advance width="447"/>
  <unicode hex="0071"/>
  <outline>
    <contour>
      <point x="120" y="500" type="line"/>
      <point x="32" y="417" type="line"/>
      <point x="32" y="79" type="line"/>
      <point x="125" y="0" type="line"/>
      <point x="249" y="0" type="line"/>
      <point x="394" y="131" type="line"/>
      <point x="394" y="417" type="line"/>
      <point x="306" y="500" type="line"/>
    </contour>
    <contour>
      <point x="179" y="256" type="line"/>
      <point x="108" y="192" type="line"/>
      <point x="146" y="159" type="line"/>
      <point x="175" y="185" type="line"/>
      <point x="195" y="185" type="line"/>
      <point x="214" y="177" type="line"/>
      <point x="230" y="159" type="line"/>
      <point x="244" y="42" type="line"/>
      <point x="335" y="-70" type="line"/>
      <point x="394" y="-70" type="line"/>
      <point x="415" y="51" type="line"/>
      <point x="370" y="51" type="line"/>
      <point x="359" y="62" type="line"/>
      <point x="343" y="198" type="line"/>
      <point x="245" y="256" type="line"/>
    </contour>
    <contour>
      <point x="279" y="393" type="line"/>
      <point x="279" y="146" type="line"/>
      <point x="213" y="80" type="line"/>
      <point x="182" y="80" type="line"/>
      <point x="147" y="113" type="line"/>
      <point x="147" y="393" type="line"/>
      <point x="178" y="425" type="line"/>
      <point x="249" y="425" type="line"/>
    </contour>
  </outline>
</glyph>
<glyph name="r" format="1">
  <advance width="413"/>
  <unicode hex="0072"/>
  <outline>
    <contour>
      <point x="117" y="500" type="line"/>
      <point x="117" y="425" type="line"/>
      <point x="219" y="425" type="line"/>
      <point x="258" y="384" type="line"/>
      <point x="258" y="311" type="line"/>
      <point x="243" y="270" type="line"/>
      <point x="160" y="209" type="line"/>
      <point x="161" y="113" type="line"/>
      <point x="228" y="158" type="line"/>
      <point x="315" y="216" type="line"/>
      <point x="373" y="302" type="line"/>
      <point x="373" y="413" type="line"/>
      <point x="283" y="500" type="line"/>
    </contour>
    <contour>
      <point x="228" y="158" type="line"/>
      <point x="268" y="0" type="line"/>
      <point x="385" y="0" type="line"/>
      <point x="315" y="216" type="line"/>
    </contour>
    <component base="i"/>
  </outline>
</glyph>
<glyph name="s" format="1">
  <advance width="398"/>
  <unicode hex="0073"/>
  <outline>
    <contour>
      <point x="117" y="500" type="line"/>
      <point x="34" y="419" type="line"/>
      <point x="34" y="331" type="line"/>
      <point x="90" y="257" type="line"/>
      <point x="223" y="200" type="line"/>
      <point x="252" y="166" type="line"/>
      <point x="252" y="110" type="line"/>
      <point x="223" y="83" type="line"/>
      <point x="169" y="83" type="line"/>
      <point x="135" y="111" type="line"/>
      <point x="135" y="189" type="line"/>
      <point x="28" y="189" type="line"/>
      <point x="28" y="74" type="line"/>
      <point x="121" y="0" type="line"/>
      <point x="284" y="0" type="line"/>
      <point x="370" y="80" type="line"/>
      <point x="370" y="196" type="line"/>
      <point x="311" y="269" type="line"/>
      <point x="169" y="328" type="line"/>
      <point x="145" y="356" type="line"/>
      <point x="145" y="393" type="line"/>
      <point x="173" y="418" type="line"/>
      <point x="227" y="418" type="line"/>
      <point x="256" y="391" type="line"/>
      <point x="256" y="342" type="line"/>
      <point x="358" y="342" type="line"/>
      <point x="358" y="430" type="line"/>
      <point x="286" y="500" type="line"/>
    </contour>
    <contour>
      <point x="193" y="500" type="move" name="top"/>
    </contour>
    <contour>
      <point x="193" y="0" type="move" name="bottom"/>
    </contour>
  </outline>
</glyph>
<glyph name="t" format="1">
  <advance width="391"/>
  <unicode hex="0074"/>
  <outline>
    <contour>
      <point x="16" y="500" type="line"/>
      <point x="5" y="418" type="line"/>
      <point x="386" y="418" type="line"/>
      <point x="375" y="500" type="line"/>
    </contour>
    <contour>
      <point x="138" y="500" type="line"/>
      <point x="138" y="0" type="line"/>
      <point x="253" y="0" type="line"/>
      <point x="253" y="500" type="line"/>
    </contour>
  </outline>
</glyph>
<glyph name="u" format="1">
  <advance width="405"/>
  <unicode hex="0075"/>
  <outline>
    <contour>
      <point x="261" y="500" type="line"/>
      <point x="261" y="111" type="line"/>
      <point x="228" y="80" type="line"/>
      <point x="177" y="80" type="line"/>
      <point x="144" y="111" type="line"/>
      <point x="144" y="500" type="line"/>
      <point x="29" y="500" type="line"/>
      <point x="29" y="79" type="line"/>
      <point x="112" y="0" type="line"/>
      <point x="292" y="0" type="line"/>
      <point x="376" y="79" type="line"/>
      <point x="376" y="500" type="line"/>
    </contour>
    <contour>
      <point x="203" y="500" type="move" name="top"/>
    </contour>
    <contour>
      <point x="364" y="10" type="move" name="ogonek"/>
    </contour>
  </outline>
</glyph>
<glyph name="v" format="1">
  <advance width="395"/>
  <unicode hex="0076"/>
  <outline>
    <contour>
      <point x="386" y="500" type="line"/>
      <point x="271" y="500" type="line"/>
      <point x="224" y="213" type="line"/>
      <point x="204" y="104" type="line"/>
      <point x="164" y="37" type="line"/>
      <point x="150" y="0" type="line"/>
      <point x="287" y="0" type="line"/>
    </contour>
    <contour>
      <point x="228" y="37" type="line"/>
      <point x="190" y="104" type="line"/>
      <point x="170" y="213" type="line"/>
      <point x="124" y="500" type="line"/>
      <point x="9" y="500" type="line"/>
      <point x="107" y="0" type="line"/>
      <point x="244" y="0" type="line"/>
    </contour>
  </outline>
</glyph>
<glyph name="w" format="1">
  <advance width="618"/>
  <unicode hex="0077"/>
  <outline>
    <contour>
      <point x="336" y="500" type="line"/>
      <point x="261" y="500" type="line"/>
      <point x="224" y="248" type="line"/>
      <point x="204" y="109" type="line"/>
      <point x="164" y="42" type="line"/>
      <point x="150" y="0" type="line"/>
      <point x="267" y="0" type="line"/>
    </contour>
    <contour>
      <point x="228" y="42" type="line"/>
      <point x="193" y="109" type="line"/>
      <point x="173" y="248" type="line"/>
      <point x="137" y="500" type="line"/>
      <point x="9" y="500" type="line"/>
      <point x="97" y="0" type="line"/>
      <point x="244" y="0" type="line"/>
    </contour>
    <contour>
      <point x="609" y="500" type="line"/>
      <point x="481" y="500" type="line"/>
      <point x="444" y="248" type="line"/>
      <point x="424" y="109" type="line"/>
      <point x="387" y="42" type="line"/>
      <point x="373" y="0" type="line"/>
      <point x="520" y="0" type="line"/>
    </contour>
    <contour>
      <point x="451" y="42" type="line"/>
      <point x="413" y="109" type="line"/>
      <point x="393" y="248" type="line"/>
      <point x="357" y="500" type="line"/>
      <point x="282" y="500" type="line"/>
      <point x="350" y="0" type="line"/>
      <point x="467" y="0" type="line"/>
    </contour>
  </outline>
</glyph>
<glyph name="x" format="1">
  <advance width="431"/>
  <unicode hex="0078"/>
  <outline>
    <contour>
      <point x="399" y="500" type="line"/>
      <point x="278" y="500" type="line"/>
      <point x="239" y="376" type="line"/>
      <point x="219" y="308" type="line"/>
      <point x="175" y="270" type="line"/>
      <point x="161" y="234" type="line"/>
      <point x="263" y="180" type="line"/>
    </contour>
    <contour>
      <point x="252" y="270" type="line"/>
      <point x="210" y="308" type="line"/>
      <point x="190" y="376" type="line"/>
      <point x="152" y="500" type="line"/>
      <point x="32" y="500" type="line"/>
      <point x="166" y="189" type="line"/>
      <point x="272" y="234" type="line"/>
    </contour>
    <contour>
      <point x="161" y="266" type="line"/>
      <point x="175" y="236" type="line"/>
      <point x="221" y="199" type="line"/>
      <point x="241" y="128" type="line"/>
      <point x="278" y="0" type="line"/>
      <point x="399" y="0" type="line"/>
      <point x="263" y="336" type="line"/>
    </contour>
    <contour>
      <point x="166" y="327" type="line"/>
      <point x="32" y="0" type="line"/>
      <point x="152" y="0" type="line"/>
      <point x="188" y="128" type="line"/>
      <point x="208" y="200" type="line"/>
      <point x="252" y="236" type="line"/>
      <point x="272" y="266" type="line"/>
    </contour>
  </outline>
</glyph>
<glyph name="y" format="1">
  <advance width="418"/>
  <unicode hex="0079"/>
  <outline>
    <contour>
      <point x="409" y="500" type="line"/>
      <point x="288" y="500" type="line"/>
      <point x="241" y="356" type="line"/>
      <point x="215" y="272" type="line"/>
      <point x="175" y="240" type="line"/>
      <point x="161" y="200" type="line"/>
      <point x="259" y="109" type="line"/>
    </contour>
    <contour>
      <point x="239" y="240" type="line"/>
      <point x="201" y="272" type="line"/>
      <point x="175" y="356" type="line"/>
      <point x="129" y="500" type="line"/>
      <point x="9" y="500" type="line"/>
      <point x="157" y="102" type="line"/>
      <point x="255" y="200" type="line"/>
    </contour>
    <contour>
      <point x="149" y="262" type="line"/>
      <point x="149" y="0" type="line"/>
      <point x="264" y="0" type="line"/>
      <point x="264" y="262" type="line"/>
    </contour>
  </outline>
</glyph>
<glyph name="z" format="1">
  <advance width="322"/>
  <unicode hex="007A"/>
  <outline>
    <contour>
      <point x="198" y="500" type="line"/>
      <point x="152" y="386" type="line"/>
      <point x="23" y="30" type="line"/>
      <point x="23" y="0" type="line"/>
      <point x="117" y="0" type="line"/>
      <point x="163" y="113" type="line"/>
      <point x="297" y="470" type="line"/>
      <point x="297" y="500" type="line"/>
    </contour>
    <contour>
      <point x="169" y="85" type="line"/>
      <point x="73" y="85" type="line"/>
      <point x="73" y="0" type="line"/>
      <point x="280" y="0" type="line"/>
      <point x="289" y="91" type="line"/>
    </contour>
    <contour>
      <point x="46" y="500" type="line"/>
      <point x="35" y="409" type="line"/>
      <point x="143" y="415" type="line"/>
      <point x="238" y="415" type="line"/>
      <point x="238" y="500" type="line"/>
    </contour>
  </outline>
</glyph>
<glyph name="braceleft" format="1">
  <advance width="234"/>
  <unicode hex="007B"/>
  <outline>
    <contour>
      <point x="48" y="106" type="line"/>
      <point x="48" y="9" type="line"/>
      <point x="151" y="-80" type="line"/>
      <point x="229" y="-80" type="line"/>
      <point x="229" y="0" type="line"/>
      <point x="204" y="0" type="line"/>
      <point x="163" y="36" type="line"/>
      <point x="163" y="106" type="line"/>
    </contour>
    <contour>
      <point x="163" y="257" type="line"/>
      <point x="60" y="346" type="line"/>
      <point x="5" y="346" type="line"/>
      <point x="5" y="271" type="line"/>
      <point x="7" y="271" type="line"/>
      <point x="48" y="236" type="line"/>
      <point x="48" y="106" type="line"/>
      <point x="163" y="106" type="line"/>
    </contour>
    <contour>
      <point x="163" y="584" type="line"/>
      <point x="204" y="620" type="line"/>
      <point x="229" y="620" type="line"/>
      <point x="229" y="700" type="line"/>
      <point x="151" y="700" type="line"/>
      <point x="48" y="611" type="line"/>
      <point x="48" y="514" type="line"/>
      <point x="163" y="514" type="line"/>
    </contour>
    <contour>
      <point x="48" y="514" type="line"/>
      <point x="48" y="384" type="line"/>
      <point x="7" y="349" type="line"/>
      <point x="5" y="349" type="line"/>
      <point x="5" y="280" type="line"/>
      <point x="60" y="280" type="line"/>
      <point x="163" y="369" type="line"/>
      <point x="163" y="514" type="line"/>
    </contour>
  </outline>
</glyph>
<glyph name="cent" format="1">
  <advance width="416"/>
  <unicode hex="00A2"/>
  <outline>
    <contour>
      <point x="123" y="600" type="line"/>
      <point x="34" y="515" type="line"/>
      <point x="34" y="186" type="line"/>
      <point x="126" y="100" type="line"/>
      <point x="293" y="100" type="line"/>
      <point x="385" y="180" type="line"/>
      <point x="385" y="310" type="line"/>
      <point x="284" y="310" type="line"/>
      <point x="284" y="216" type="line"/>
      <point x="246" y="181" type="line"/>
      <point x="181" y="181" type="line"/>
      <point x="149" y="216" type="line"/>
      <point x="149" y="483" type="line"/>
      <point x="183" y="520" type="line"/>
      <point x="245" y="520" type="line"/>
      <point x="283" y="485" type="line"/>
      <point x="283" y="400" type="line"/>
      <point x="383" y="400" type="line"/>
      <point x="383" y="528" type="line"/>
      <point x="303" y="600" type="line"/>
    </contour>
    <contour>
      <point x="191" y="0" type="line"/>
      <point x="239" y="0" type="line"/>
      <point x="239" y="700" type="line"/>
      <point x="191" y="700" type="line"/>
    </contour>
  </outline>
</glyph>
<glyph name="sterling" format="1">
  <advance width="490"/>
  <unicode hex="00A3"/>
  <outline>
    <contour>
      <point x="245" y="700" type="line"/>
      <point x="155" y="620" type="line"/>
      <point x="155" y="108" type="line"/>
      <point x="125" y="81" type="line"/>
      <point x="99" y="81" type="line"/>
      <point x="69" y="108" type="line"/>
      <point x="5" y="44" type="line"/>
      <point x="60" y="0" type="line"/>
      <point x="171" y="0" type="line"/>
      <point x="266" y="84" type="line"/>
      <point x="266" y="593" type="line"/>
      <point x="296" y="620" type="line"/>
      <point x="326" y="620" type="line"/>
      <point x="357" y="593" type="line"/>
      <point x="357" y="493" type="line"/>
      <point x="457" y="493" type="line"/>
      <point x="457" y="633" type="line"/>
      <point x="381" y="700" type="line"/>
    </contour>
    <contour>
      <point x="175" y="87" type="line"/>
      <point x="259" y="0" type="line"/>
      <point x="445" y="0" type="line"/>
      <point x="462" y="87" type="line"/>
    </contour>
    <component base="hyphen" xOffset="62" yOffset="19" xScale="1.250"/>
  </outline>
</glyph>
<glyph name="currency" format="1">
  <advance width="494"/>
  <unicode hex="00A4"/>
  <outline>
    <contour>
      <point x="68" y="401" type="line"/>
      <point x="68" y="239" type="line"/>
      <point x="171" y="150" type="line"/>
      <point x="251" y="150" type="line"/>
      <point x="251" y="230" type="line"/>
      <point x="224" y="230" type="line"/>
      <point x="183" y="266" type="line"/>
      <point x="183" y="380" type="line"/>
      <point x="224" y="415" type="line"/>
      <point x="251" y="415" type="line"/>
      <point x="251" y="490" type="line"/>
      <point x="171" y="490" type="line"/>
    </contour>
    <contour>
      <point x="246" y="490" type="line"/>
      <point x="246" y="415" type="line"/>
      <point x="274" y="415" type="line"/>
      <point x="315" y="380" type="line"/>
      <point x="315" y="266" type="line"/>
      <point x="274" y="230" type="line"/>
      <point x="246" y="230" type="line"/>
      <point x="246" y="150" type="line"/>
      <point x="326" y="150" type="line"/>
      <point x="430" y="239" type="line"/>
      <point x="430" y="401" type="line"/>
      <point x="326" y="490" type="line"/>
    </contour>
    <component base="quotesingle" xOffset="421" yOffset="87" xScale="0.604" yScale="0.604" xyScale="0.604" yxScale="-0.604"/>
    <component base="quotesingle" xOffset="72" yOffset="87" xScale="-0.604" yScale="0.604" xyScale="0.604" yxScale="0.604"/>
    <component base="quotesingle" xOffset="421" yOffset="552" xScale="0.604" yScale="-0.604" xyScale="-0.604" yxScale="-0.604"/>
    <component base="quotesingle" xOffset="72" yOffset="552" xScale="-0.604" yScale="-0.604" xyScale="-0.604" yxScale="0.604"/>
  </outline>
</glyph>
<glyph name="brokenbar" format="1">
  <advance width="225"/>
  <unicode hex="00A6"/>
  <outline>
    <contour>
      <point x="55" y="270" type="line"/>
      <point x="55" y="-200" type="line"/>
      <point x="170" y="-200" type="line"/>
      <point x="170" y="270" type="line"/>
    </contour>
    <contour>
      <point x="170" y="330" type="line"/>
      <point x="170" y="800" type="line"/>
      <point x="55" y="800" type="line"/>
      <point x="55" y="330" type="line"/>
    </contour>
  </outline>
</glyph>
<glyph name="section" format="1">
  <advance width="391"/>
  <unicode hex="00A7"/>
  <outline>
    <contour>
      <point x="290" y="260" type="line"/>
      <point x="177" y="313" type="line"/>
      <point x="145" y="339" type="line"/>
      <point x="145" y="378" type="line"/>
      <point x="171" y="401" type="line"/>
      <point x="219" y="401" type="line"/>
      <point x="242" y="379" type="line"/>
      <point x="311" y="407" type="line"/>
      <point x="241" y="467" type="line"/>
      <point x="106" y="467" type="line"/>
      <point x="37" y="396" type="line"/>
      <point x="37" y="317" type="line"/>
      <point x="88" y="245" type="line"/>
      <point x="209" y="191" type="line"/>
      <point x="235" y="160" type="line"/>
      <point x="235" y="105" type="line"/>
      <point x="208" y="81" type="line"/>
      <point x="170" y="81" type="line"/>
      <point x="138" y="106" type="line"/>
      <point x="138" y="181" type="line"/>
      <point x="32" y="181" type="line"/>
      <point x="32" y="72" type="line"/>
      <point x="121" y="0" type="line"/>
      <point x="268" y="0" type="line"/>
      <point x="352" y="78" type="line"/>
      <point x="352" y="188" type="line"/>
    </contour>
    <contour>
      <point x="303" y="480" type="line"/>
      <point x="182" y="535" type="line"/>
      <point x="159" y="561" type="line"/>
      <point x="159" y="597" type="line"/>
      <point x="185" y="621" type="line"/>
      <point x="223" y="621" type="line"/>
      <point x="249" y="599" type="line"/>
      <point x="249" y="551" type="line"/>
      <point x="350" y="551" type="line"/>
      <point x="350" y="641" type="line"/>
      <point x="281" y="700" type="line"/>
      <point x="129" y="700" type="line"/>
      <point x="49" y="622" type="line"/>
      <point x="49" y="530" type="line"/>
      <point x="105" y="462" type="line"/>
      <point x="216" y="410" type="line"/>
      <point x="242" y="380" type="line"/>
      <point x="242" y="339" type="line"/>
      <point x="215" y="314" type="line"/>
      <point x="177" y="314" type="line"/>
      <point x="145" y="339" type="line"/>
      <point x="87" y="332" type="line"/>
      <point x="177" y="257" type="line"/>
      <point x="288" y="257" type="line"/>
      <point x="359" y="320" type="line"/>
      <point x="359" y="409" type="line"/>
    </contour>
  </outline>
</glyph>
<glyph name="dieresis" format="1">
  <advance width="322"/>
  <unicode hex="00A8"/>
  <outline>
    <component base="dotaccent" xOffset="193"/>
    <component base="dotaccent"/>
    <contour>
      <point x="162" y="700" type="move" name="_top"/>
    </contour>
  </outline>
</glyph>
<glyph name="copyright" format="1">
  <advance width="709"/>
  <unicode hex="00A9"/>
  <outline>
    <contour>
      <point x="564" y="700" type="line"/>
      <point x="144" y="700" type="line"/>
      <point x="41" y="611" type="line"/>
      <point x="41" y="89" type="line"/>
      <point x="144" y="0" type="line"/>
      <point x="564" y="0" type="line"/>
      <point x="668" y="89" type="line"/>
      <point x="668" y="611" type="line"/>
    </contour>
    <contour>
      <point x="553" y="116" type="line"/>
      <point x="512" y="80" type="line"/>
      <point x="197" y="80" type="line"/>
      <point x="156" y="116" type="line"/>
      <point x="156" y="590" type="line"/>
      <point x="197" y="625" type="line"/>
      <point x="512" y="625" type="line"/>
      <point x="553" y="590" type="line"/>
    </contour>
    <component base="c" xOffset="189" yOffset="144" xScale="0.837" yScale="0.837"/>
  </outline>
</glyph>
<glyph name="macron" format="1">
  <advance width="392"/>
  <unicode hex="00AF"/>
  <outline>
    <contour>
      <point x="142" y="782" type="line"/>
      <point x="382" y="782" type="line"/>
      <point x="382" y="865" type="line"/>
      <point x="142" y="865" type="line"/>
    </contour>
    <contour>
      <point x="10" y="782" type="line"/>
      <point x="260" y="782" type="line"/>
      <point x="260" y="865" type="line"/>
      <point x="10" y="865" type="line"/>
    </contour>
    <contour>
      <point x="199" y="700" type="move" name="_top"/>
    </contour>
  </outline>
</glyph>
<glyph name="degree" format="1">
  <advance width="382"/>
  <unicode hex="00B0"/>
  <outline>
    <contour>
      <point x="10" y="611" type="line"/>
      <point x="10" y="471" type="line"/>
      <point x="113" y="382" type="line"/>
      <point x="193" y="382" type="line"/>
      <point x="193" y="476" type="line"/>
      <point x="166" y="476" type="line"/>
      <point x="125" y="512" type="line"/>
      <point x="125" y="576" type="line"/>
      <point x="166" y="611" type="line"/>
      <point x="193" y="611" type="line"/>
      <point x="193" y="700" type="line"/>
      <point x="113" y="700" type="line"/>
    </contour>
    <contour>
      <point x="188" y="700" type="line"/>
      <point x="188" y="611" type="line"/>
      <point x="216" y="611" type="line"/>
      <point x="257" y="576" type="line"/>
      <point x="257" y="512" type="line"/>
      <point x="216" y="476" type="line"/>
      <point x="188" y="476" type="line"/>
      <point x="188" y="382" type="line"/>
      <point x="268" y="382" type="line"/>
      <point x="372" y="471" type="line"/>
      <point x="372" y="611" type="line"/>
      <point x="268" y="700" type="line"/>
    </contour>
  </outline>
</glyph>
<glyph name="acute" format="1">
  <advance width="218"/>
  <unicode hex="00B4"/>
  <outline>
    <contour>
      <point x="93" y="932" type="line"/>
      <point x="10" y="776" type="line"/>
      <point x="10" y="766" type="line"/>
      <point x="115" y="766" type="line"/>
      <point x="208" y="922" type="line"/>
      <point x="208" y="932" type="line"/>
    </contour>
    <contour>
      <point x="73" y="700" type="move" name="_top"/>
    </contour>
  </outline>
</glyph>
<glyph name="paragraph" format="1">
  <advance width="524"/>
  <unicode hex="00B6"/>
  <outline>
    <contour>
      <point x="38" y="611" type="line"/>
      <point x="38" y="395" type="line"/>
      <point x="119" y="300" type="line"/>
      <point x="294" y="202" type="line"/>
      <point x="294" y="700" type="line"/>
      <point x="142" y="700" type="line"/>
    </contour>
    <contour>
      <point x="199" y="-100" type="line"/>
      <point x="314" y="-100" type="line"/>
      <point x="314" y="700" type="line"/>
      <point x="199" y="700" type="line"/>
    </contour>
    <contour>
      <point x="354" y="-100" type="line"/>
      <point x="469" y="-100" type="line"/>
      <point x="469" y="700" type="line"/>
      <point x="354" y="700" type="line"/>
    </contour>
  </outline>
</glyph>
<glyph name="cedilla" format="1">
  <advance width="244"/>
  <unicode hex="00B8"/>
  <outline>
    <component base="ogonek" xOffset="244" xScale="-1"/>
    <contour>
      <point x="-84" y="0" type="move" name="_bottom"/>
    </contour>
  </outline>
</glyph>
<glyph name="AE" format="1">
  <advance width="509"/>
  <unicode hex="00C6"/>
  <outline>
    <contour>
      <point x="115" y="157" type="line"/>
      <point x="277" y="157" type="line"/>
      <point x="267" y="272" type="line"/>
      <point x="212" y="232" type="line"/>
      <point x="168" y="232" type="line"/>
      <point x="125" y="272" type="line"/>
    </contour>
    <contour>
      <point x="138" y="700" type="line"/>
      <point x="9" y="0" type="line"/>
      <point x="124" y="0" type="line"/>
      <point x="185" y="382" type="line"/>
      <point x="214" y="591" type="line"/>
      <point x="252" y="658" type="line"/>
      <point x="268" y="700" type="line"/>
    </contour>
    <component base="E" xOffset="169"/>
    <contour>
      <point x="198" y="700" type="move" name="top"/>
    </contour>
    <contour>
      <point x="355" y="10" type="move" name="ogonek"/>
    </contour>
  </outline>
</glyph>
<glyph name="Oslash" format="1">
  <advance width="454"/>
  <unicode hex="00D8"/>
  <outline>
    <contour>
      <point x="309" y="700" type="line"/>
      <point x="144" y="700" type="line"/>
      <point x="41" y="611" type="line"/>
      <point x="41" y="89" type="line"/>
      <point x="144" y="0" type="line"/>
      <point x="309" y="0" type="line"/>
      <point x="413" y="89" type="line"/>
      <point x="413" y="611" type="line"/>
    </contour>
    <contour>
      <point x="298" y="116" type="line"/>
      <point x="257" y="80" type="line"/>
      <point x="197" y="80" type="line"/>
      <point x="156" y="116" type="line"/>
      <point x="156" y="590" type="line"/>
      <point x="197" y="625" type="line"/>
      <point x="257" y="625" type="line"/>
      <point x="298" y="590" type="line"/>
    </contour>
    <contour>
      <point x="289" y="776" type="line"/>
      <point x="89" y="-74" type="line"/>
      <point x="171" y="-74" type="line"/>
      <point x="371" y="776" type="line"/>
    </contour>
    <contour>
      <point x="222" y="700" type="move" name="top"/>
    </contour>
  </outline>
</glyph>
<glyph name="Thorn" format="1">
  <advance width="400"/>
  <unicode hex="00DE"/>
  <outline>
    <contour>
      <point x="109" y="596" type="line"/>
      <point x="109" y="526" type="line"/>
      <point x="219" y="526" type="line"/>
      <point x="258" y="491" type="line"/>
      <point x="258" y="317" type="line"/>
      <point x="225" y="263" type="line"/>
      <point x="126" y="203" type="line"/>
      <point x="126" y="98" type="line"/>
      <point x="292" y="196" type="line"/>
      <point x="373" y="291" type="line"/>
      <point x="373" y="507" type="line"/>
      <point x="269" y="596" type="line"/>
    </contour>
    <component base="I"/>
  </outline>
</glyph>
<glyph name="germandbls" format="1">
  <advance width="435"/>
  <unicode hex="00DF"/>
  <outline>
    <contour>
      <point x="194" y="291" type="line"/>
      <point x="194" y="217" type="line"/>
      <point x="251" y="217" type="line"/>
      <point x="290" y="182" type="line"/>
      <point x="290" y="116" type="line"/>
      <point x="251" y="80" type="line"/>
      <point x="197" y="80" type="line"/>
      <point x="197" y="0" type="line"/>
      <point x="301" y="0" type="line"/>
      <point x="405" y="89" type="line"/>
      <point x="405" y="202" type="line"/>
      <point x="301" y="291" type="line"/>
    </contour>
    <contour>
      <point x="294" y="500" type="line"/>
      <point x="144" y="500" type="line"/>
      <point x="40" y="411" type="line"/>
      <point x="40" y="0" type="line"/>
      <point x="155" y="0" type="line"/>
      <point x="155" y="390" type="line"/>
      <point x="194" y="425" type="line"/>
      <point x="244" y="425" type="line"/>
      <point x="283" y="390" type="line"/>
      <point x="283" y="328" type="line"/>
      <point x="244" y="292" type="line"/>
      <point x="194" y="292" type="line"/>
      <point x="194" y="232" type="line"/>
      <point x="294" y="232" type="line"/>
      <point x="398" y="321" type="line"/>
      <point x="398" y="411" type="line"/>
    </contour>
    <contour>
      <point x="187" y="10" type="move" name="ogonek"/>
    </contour>
    <contour>
      <point x="98" y="700" type="move" name="top"/>
    </contour>
  </outline>
</glyph>
<glyph name="ae" format="1">
  <advance width="551"/>
  <unicode hex="00E6"/>
  <outline>
    <contour>
      <point x="136" y="107" type="line"/>
      <point x="312" y="107" type="line"/>
      <point x="302" y="222" type="line"/>
      <point x="247" y="182" type="line"/>
      <point x="189" y="182" type="line"/>
      <point x="146" y="222" type="line"/>
    </contour>
    <contour>
      <point x="174" y="500" type="line"/>
      <point x="0" y="0" type="line"/>
      <point x="115" y="0" type="line"/>
      <point x="210" y="279" type="line"/>
      <point x="248" y="402" type="line"/>
      <point x="286" y="458" type="line"/>
      <point x="302" y="500" type="line"/>
    </contour>
    <component base="e" xOffset="212"/>
    <contour>
      <point x="209" y="500" type="move" name="top"/>
    </contour>
    <contour>
      <point x="367" y="10" type="move" name="ogonek"/>
    </contour>
  </outline>
</glyph>
<glyph name="oslash" format="1">
  <advance width="428"/>
  <unicode hex="00F8"/>
  <outline>
    <contour>
      <point x="248" y="584" type="line"/>
      <point x="91" y="-84" type="line"/>
      <point x="171" y="-84" type="line"/>
      <point x="328" y="584" type="line"/>
    </contour>
    <component base="o"/>
  </outline>
</glyph>
<glyph name="thorn" format="1">
  <advance width="401"/>
  <unicode hex="00FE"/>
  <outline>
    <contour>
      <point x="117" y="438" type="line"/>
      <point x="117" y="368" type="line"/>
      <point x="227" y="368" type="line"/>
      <point x="266" y="333" type="line"/>
      <point x="266" y="248" type="line"/>
      <point x="233" y="195" type="line"/>
      <point x="134" y="135" type="line"/>
      <point x="134" y="40" type="line"/>
      <point x="310" y="141" type="line"/>
      <point x="381" y="243" type="line"/>
      <point x="381" y="349" type="line"/>
      <point x="277" y="438" type="line"/>
    </contour>
    <contour>
      <point x="50" y="500" type="line"/>
      <point x="50" y="0" type="line"/>
      <point x="165" y="0" type="line"/>
      <point x="165" y="500" type="line"/>
    </contour>
  </outline>
</glyph>
<glyph name="dotlessi" format="1">
  <advance width="215"/>
  <unicode hex="0131"/>
  <outline>
    <component base="i"/>
    <contour>
      <point x="193" y="10" type="move" name="ogonek"/>
    </contour>
    <contour>
      <point x="108" y="500" type="move" name="top"/>
    </contour>
  </outline>
</glyph>
<glyph name="Lslash" format="1">
  <advance width="361"/>
  <unicode hex="0141"/>
  <outline>
    <contour>
      <point x="5" y="249" type="line"/>
      <point x="306" y="332" type="line"/>
      <point x="306" y="415" type="line"/>
      <point x="5" y="332" type="line"/>
    </contour>
    <component base="L" xOffset="19"/>
  </outline>
</glyph>
<glyph name="lslash" format="1">
  <advance width="377"/>
  <unicode hex="0142"/>
  <outline>
    <contour>
      <point x="5" y="189" type="line"/>
      <point x="306" y="272" type="line"/>
      <point x="306" y="355" type="line"/>
      <point x="5" y="272" type="line"/>
    </contour>
    <component base="l" xOffset="41"/>
  </outline>
</glyph>
<glyph name="Eng" format="1">
  <advance width="435"/>
  <unicode hex="014A"/>
  <outline>
    <contour>
      <point x="269" y="315" type="line"/>
      <point x="269" y="-169" type="line"/>
      <point x="230" y="-204" type="line"/>
      <point x="199" y="-204" type="line"/>
      <point x="160" y="-175" type="line"/>
      <point x="159" y="-75" type="line"/>
      <point x="58" y="-75" type="line"/>
      <point x="58" y="-205" type="line"/>
      <point x="164" y="-285" type="line"/>
      <point x="281" y="-285" type="line"/>
      <point x="384" y="-196" type="line"/>
      <point x="384" y="315" type="line"/>
    </contour>
    <component base="N" xOffset="-5"/>
    <contour>
      <point x="243" y="415" type="move" name="top"/>
    </contour>
  </outline>
</glyph>
<glyph name="eng" format="1">
  <advance width="437"/>
  <unicode hex="014B"/>
  <outline>
    <contour>
      <point x="272" y="52" type="line"/>
      <point x="272" y="-132" type="line"/>
      <point x="233" y="-167" type="line"/>
      <point x="193" y="-167" type="line"/>
      <point x="154" y="-138" type="line"/>
      <point x="153" y="-68" type="line"/>
      <point x="52" y="-68" type="line"/>
      <point x="52" y="-168" type="line"/>
      <point x="158" y="-248" type="line"/>
      <point x="284" y="-248" type="line"/>
      <point x="387" y="-159" type="line"/>
      <point x="387" y="52" type="line"/>
    </contour>
    <component base="n"/>
  </outline>
</glyph>
<glyph name="circumflex" format="1">
  <advance width="352"/>
  <unicode hex="02C6"/>
  <outline>
    <component base="caron" yOffset="1738" yScale="-1"/>
    <contour>
      <point x="182" y="700" type="move" name="_top"/>
    </contour>
  </outline>
</glyph>
<glyph name="caron" format="1">
  <advance width="344"/>
  <unicode hex="02C7"/>
  <outline>
    <contour>
      <point x="212" y="938" type="line"/>
      <point x="137" y="766" type="line"/>
      <point x="211" y="766" type="line"/>
      <point x="315" y="930" type="line" smooth="yes"/>
      <point x="315" y="938" type="line"/>
    </contour>
    <contour>
      <point x="29" y="930" type="line"/>
      <point x="133" y="766" type="line"/>
      <point x="207" y="766" type="line"/>
      <point x="131" y="938" type="line"/>
      <point x="29" y="938" type="line"/>
    </contour>
    <contour>
      <point x="176" y="700" type="move" name="_top"/>
    </contour>
  </outline>
</glyph>
<glyph name="breve" format="1">
  <advance width="326"/>
  <unicode hex="02D8"/>
  <outline>
    <contour>
      <point x="36" y="932" type="line"/>
      <point x="36" y="847" type="line"/>
      <point x="105" y="778" type="line"/>
      <point x="221" y="778" type="line"/>
      <point x="290" y="847" type="line"/>
      <point x="290" y="932" type="line"/>
      <point x="199" y="906" type="line"/>
      <point x="199" y="871" type="line"/>
      <point x="173" y="846" type="line"/>
      <point x="153" y="846" type="line"/>
      <point x="126" y="871" type="line"/>
      <point x="126" y="906" type="line"/>
    </contour>
    <contour>
      <point x="163" y="700" type="move" name="_top"/>
    </contour>
  </outline>
</glyph>
<glyph name="dotaccent" format="1">
  <advance width="149"/>
  <unicode hex="02D9"/>
  <outline>
    <component base="period" yOffset="787"/>
    <contour>
      <point x="75" y="700" type="move" name="_top"/>
    </contour>
  </outline>
</glyph>
<glyph name="ring" format="1">
  <advance width="243"/>
  <unicode hex="02DA"/>
  <outline>
    <contour>
      <point x="64" y="928" type="line"/>
      <point x="10" y="874" type="line"/>
      <point x="10" y="767" type="line"/>
      <point x="64" y="712" type="line"/>
      <point x="179" y="712" type="line"/>
      <point x="233" y="767" type="line"/>
      <point x="233" y="874" type="line"/>
      <point x="179" y="928" type="line"/>
    </contour>
    <contour>
      <point x="155" y="840" type="line"/>
      <point x="155" y="802" type="line"/>
      <point x="136" y="784" type="line"/>
      <point x="107" y="784" type="line"/>
      <point x="89" y="802" type="line"/>
      <point x="89" y="840" type="line"/>
      <point x="107" y="858" type="line"/>
      <point x="136" y="858" type="line"/>
    </contour>
    <contour>
      <point x="121" y="650" type="move" name="_top"/>
    </contour>
  </outline>
</glyph>
<glyph name="ogonek" format="1">
  <advance width="253"/>
  <unicode hex="02DB"/>
  <outline>
    <contour>
      <point x="190" y="0" type="line"/>
      <point x="63" y="0" type="line"/>
      <point x="9" y="-55" type="line"/>
      <point x="9" y="-167" type="line"/>
      <point x="63" y="-222" type="line"/>
      <point x="189" y="-222" type="line"/>
      <point x="244" y="-167" type="line"/>
      <point x="168" y="-127" type="line"/>
      <point x="146" y="-151" type="line"/>
      <point x="108" y="-151" type="line"/>
      <point x="88" y="-132" type="line"/>
      <point x="88" y="-90" type="line"/>
      <point x="108" y="-70" type="line"/>
      <point x="143" y="-70" type="line"/>
    </contour>
    <contour>
      <point x="191" y="0" type="move" name="_ogonek"/>
    </contour>
    <contour>
      <point x="116" y="-302" type="move" name="_top"/>
    </contour>
  </outline>
</glyph>
<glyph name="tilde" format="1">
  <advance width="361"/>
  <unicode hex="02DC"/>
  <outline>
    <contour>
      <point x="73" y="947" type="line"/>
      <point x="10" y="884" type="line"/>
      <point x="10" y="785" type="line"/>
      <point x="108" y="785" type="line"/>
      <point x="108" y="843" type="line"/>
      <point x="132" y="867" type="line"/>
      <point x="151" y="867" type="line"/>
      <point x="185" y="785" type="line"/>
      <point x="288" y="785" type="line"/>
      <point x="351" y="847" type="line"/>
      <point x="351" y="947" type="line"/>
      <point x="252" y="947" type="line"/>
      <point x="252" y="888" type="line"/>
      <point x="229" y="865" type="line"/>
      <point x="212" y="865" type="line"/>
      <point x="178" y="947" type="line"/>
    </contour>
    <contour>
      <point x="185" y="700" type="move" name="_top"/>
    </contour>
  </outline>
</glyph>
<glyph name="hungarumlaut" format="1">
  <advance width="440"/>
  <unicode hex="02DD"/>
  <outline>
    <component base="acute" xOffset="206"/>
    <component base="acute"/>
    <contour>
      <point x="433" y="680" type="move" name="_top"/>
    </contour>
  </outline>
</glyph>
<glyph name="uni0326" format="1">
  <advance width="130"/>
  <unicode hex="0326"/>
  <outline>
    <component base="comma" xOffset="-10" yOffset="-219"/>
    <contour>
      <point x="71" y="0" type="move" name="_bottom"/>
    </contour>
  </outline>
</glyph>
<glyph name="dagger" format="1">
  <advance width="338"/>
  <unicode hex="2020"/>
  <outline>
    <contour>
      <point x="128" y="700" type="line"/>
      <point x="138" y="500" type="line"/>
      <point x="128" y="0" type="line"/>
      <point x="211" y="0" type="line"/>
      <point x="201" y="500" type="line"/>
      <point x="211" y="700" type="line"/>
    </contour>
    <contour>
      <point x="10" y="470" type="line"/>
      <point x="328" y="470" type="line"/>
      <point x="264" y="521" type="line"/>
      <point x="74" y="521" type="line"/>
    </contour>
    <contour>
      <point x="10" y="391" type="line"/>
      <point x="80" y="391" type="line"/>
      <point x="80" y="456" type="line"/>
      <point x="91" y="470" type="line"/>
      <point x="10" y="470" type="line"/>
    </contour>
    <contour>
      <point x="258" y="456" type="line"/>
      <point x="258" y="391" type="line"/>
      <point x="328" y="391" type="line"/>
      <point x="328" y="470" type="line"/>
      <point x="246" y="470" type="line"/>
    </contour>
  </outline>
</glyph>
<glyph name="daggerdbl" format="1">
  <advance width="328"/>
  <unicode hex="2021"/>
  <outline>
    <contour>
      <point x="123" y="700" type="line"/>
      <point x="133" y="500" type="line"/>
      <point x="133" y="200" type="line"/>
      <point x="123" y="0" type="line"/>
      <point x="206" y="0" type="line"/>
      <point x="196" y="200" type="line"/>
      <point x="196" y="500" type="line"/>
      <point x="206" y="700" type="line"/>
    </contour>
    <contour>
      <point x="69" y="521" type="line"/>
      <point x="5" y="470" type="line"/>
      <point x="5" y="391" type="line"/>
      <point x="75" y="391" type="line"/>
      <point x="75" y="456" type="line"/>
      <point x="86" y="470" type="line"/>
      <point x="241" y="470" type="line"/>
      <point x="253" y="456" type="line"/>
      <point x="253" y="391" type="line"/>
      <point x="323" y="391" type="line"/>
      <point x="323" y="470" type="line"/>
      <point x="259" y="521" type="line"/>
    </contour>
    <contour>
      <point x="323" y="230" type="line"/>
      <point x="323" y="309" type="line"/>
      <point x="253" y="309" type="line"/>
      <point x="253" y="244" type="line"/>
      <point x="241" y="230" type="line"/>
      <point x="86" y="230" type="line"/>
      <point x="75" y="244" type="line"/>
      <point x="75" y="309" type="line"/>
      <point x="5" y="309" type="line"/>
      <point x="5" y="230" type="line"/>
      <point x="69" y="179" type="line"/>
      <point x="259" y="179" type="line"/>
    </contour>
  </outline>
</glyph>
<glyph name="guilsinglleft" format="1">
  <advance width="220"/>
  <unicode hex="2039"/>
  <outline>
    <contour>
      <point x="5" y="235" type="line"/>
      <point x="48" y="201" type="line"/>
      <point x="125" y="275" type="line"/>
      <point x="215" y="385" type="line"/>
      <point x="215" y="500" type="line"/>
      <point x="203" y="500" type="line"/>
      <point x="5" y="272" type="line"/>
    </contour>
    <contour>
      <point x="203" y="0" type="line"/>
      <point x="215" y="0" type="line"/>
      <point x="215" y="115" type="line"/>
      <point x="125" y="230" type="line"/>
      <point x="48" y="304" type="line"/>
      <point x="5" y="265" type="line"/>
      <point x="5" y="228" type="line"/>
    </contour>
  </outline>
</glyph>
<glyph name="Euro" format="1">
  <advance width="444"/>
  <unicode hex="20AC"/>
  <outline>
    <contour>
      <point x="179" y="700" type="line"/>
      <point x="76" y="611" type="line"/>
      <point x="76" y="89" type="line"/>
      <point x="179" y="0" type="line"/>
      <point x="315" y="0" type="line"/>
      <point x="411" y="81" type="line"/>
      <point x="411" y="224" type="line"/>
      <point x="308" y="224" type="line"/>
      <point x="308" y="116" type="line"/>
      <point x="268" y="81" type="line"/>
      <point x="230" y="81" type="line"/>
      <point x="191" y="116" type="line"/>
      <point x="191" y="585" type="line"/>
      <point x="230" y="620" type="line"/>
      <point x="271" y="620" type="line"/>
      <point x="309" y="585" type="line"/>
      <point x="309" y="494" type="line"/>
      <point x="411" y="494" type="line"/>
      <point x="411" y="619" type="line"/>
      <point x="317" y="700" type="line"/>
    </contour>
    <contour>
      <point x="10" y="386" type="line"/>
      <point x="321" y="386" type="line"/>
      <point x="334" y="459" type="line"/>
      <point x="23" y="459" type="line"/>
    </contour>
    <contour>
      <point x="10" y="256" type="line"/>
      <point x="321" y="256" type="line"/>
      <point x="334" y="329" type="line"/>
      <point x="23" y="329" type="line"/>
    </contour>
  </outline>
</glyph>
<glyph name="trademark" format="1">
  <advance width="397"/>
  <unicode hex="2122"/>
  <outline>
    <contour>
      <point x="149" y="700" type="line"/>
      <point x="16" y="700" type="line"/>
      <point x="10" y="657" type="line"/>
      <point x="55" y="659" type="line"/>
      <point x="55" y="490" type="line"/>
      <point x="110" y="490" type="line"/>
      <point x="110" y="659" type="line"/>
      <point x="155" y="657" type="line"/>
    </contour>
    <contour>
      <point x="302" y="700" type="line"/>
      <point x="281" y="565" type="line"/>
      <point x="262" y="700" type="line"/>
      <point x="176" y="700" type="line"/>
      <point x="176" y="490" type="line"/>
      <point x="228" y="490" type="line"/>
      <point x="228" y="592" type="line"/>
      <point x="229" y="657" type="line"/>
      <point x="231" y="660" type="line"/>
      <point x="234" y="657" type="line"/>
      <point x="244" y="592" type="line"/>
      <point x="260" y="490" type="line"/>
      <point x="301" y="490" type="line"/>
      <point x="320" y="592" type="line"/>
      <point x="330" y="657" type="line"/>
      <point x="332" y="660" type="line"/>
      <point x="335" y="657" type="line"/>
      <point x="335" y="592" type="line"/>
      <point x="335" y="490" type="line"/>
      <point x="387" y="490" type="line"/>
      <point x="387" y="700" type="line"/>
    </contour>
  </outline>
</glyph>
<glyph name="lozenge" format="1">
  <advance width="373"/>
  <unicode hex="25CA"/>
  <outline>
    <contour>
      <point x="188" y="559" type="line"/>
      <point x="188" y="700" type="line"/>
      <point x="175" y="700" type="line"/>
      <point x="5" y="381" type="line"/>
      <point x="5" y="319" type="line"/>
      <point x="175" y="0" type="line"/>
      <point x="188" y="0" type="line"/>
      <point x="188" y="140" type="line"/>
      <point x="86" y="355" type="line"/>
    </contour>
    <contour>
      <point x="287" y="355" type="line"/>
      <point x="184" y="140" type="line"/>
      <point x="184" y="0" type="line"/>
      <point x="197" y="0" type="line"/>
      <point x="368" y="319" type="line"/>
      <point x="368" y="381" type="line"/>
      <point x="197" y="700" type="line"/>
      <point x="184" y="700" type="line"/>
      <point x="184" y="559" type="line"/>
    </contour>
  </outline>
</glyph>
<glyph name="eight.osf" format="1">
  <advance width="419"/>
  <outline>
    <contour>
      <point x="135" y="303" type="line"/>
      <point x="31" y="214" type="line"/>
      <point x="31" y="89" type="line"/>
      <point x="135" y="0" type="line"/>
      <point x="284" y="0" type="line"/>
      <point x="388" y="89" type="line"/>
      <point x="388" y="214" type="line"/>
      <point x="284" y="303" type="line"/>
    </contour>
    <contour>
      <point x="273" y="199" type="line"/>
      <point x="273" y="112" type="line"/>
      <point x="237" y="81" type="line"/>
      <point x="182" y="81" type="line"/>
      <point x="146" y="112" type="line"/>
      <point x="146" y="199" type="line"/>
      <point x="182" y="229" type="line"/>
      <point x="237" y="229" type="line"/>
    </contour>
    <contour>
      <point x="266" y="395" type="line"/>
      <point x="266" y="335" type="line"/>
      <point x="229" y="304" type="line"/>
      <point x="190" y="304" type="line"/>
      <point x="153" y="335" type="line"/>
      <point x="153" y="395" type="line"/>
      <point x="190" y="425" type="line"/>
      <point x="229" y="425" type="line"/>
    </contour>
    <contour>
      <point x="142" y="500" type="line"/>
      <point x="38" y="411" type="line"/>
      <point x="38" y="333" type="line"/>
      <point x="142" y="244" type="line"/>
      <point x="277" y="244" type="line"/>
      <point x="381" y="333" type="line"/>
      <point x="381" y="411" type="line"/>
      <point x="277" y="500" type="line"/>
    </contour>
  </outline>
</glyph>
<glyph name="five.osf" format="1">
  <advance width="377"/>
  <outline>
    <contour>
      <point x="39" y="500" type="line"/>
      <point x="39" y="298" type="line"/>
      <point x="83" y="244" type="line"/>
      <point x="198" y="244" type="line"/>
      <point x="227" y="213" type="line"/>
      <point x="227" y="115" type="line"/>
      <point x="190" y="81" type="line"/>
      <point x="170" y="81" type="line"/>
      <point x="141" y="109" type="line"/>
      <point x="141" y="193" type="line"/>
      <point x="32" y="193" type="line"/>
      <point x="32" y="74" type="line"/>
      <point x="125" y="0" type="line"/>
      <point x="243" y="0" type="line"/>
      <point x="345" y="89" type="line"/>
      <point x="345" y="260" type="line"/>
      <point x="286" y="331" type="line"/>
      <point x="150" y="331" type="line"/>
      <point x="150" y="412" type="line"/>
      <point x="309" y="412" type="line"/>
      <point x="318" y="500" type="line"/>
    </contour>
  </outline>
</glyph>
<glyph name="four.osf" format="1">
  <advance width="400"/>
  <outline>
    <contour>
      <point x="191" y="500" type="line"/>
      <point x="20" y="238" type="line"/>
      <point x="20" y="181" type="line"/>
      <point x="70" y="92" type="line"/>
      <point x="395" y="92" type="line"/>
      <point x="400" y="173" type="line"/>
      <point x="146" y="173" type="line"/>
      <point x="130" y="197" type="line"/>
      <point x="130" y="215" type="line"/>
      <point x="199" y="326" type="line"/>
      <point x="215" y="362" type="line"/>
      <point x="257" y="370" type="line"/>
      <point x="257" y="500" type="line"/>
    </contour>
    <component base="i" xOffset="168"/>
  </outline>
</glyph>
<glyph name="nine.osf" format="1">
  <advance width="406"/>
  <outline>
    <contour>
      <point x="219" y="173" type="line"/>
      <point x="259" y="214" type="line"/>
      <point x="259" y="279" type="line"/>
      <point x="224" y="247" type="line"/>
      <point x="186" y="247" type="line"/>
      <point x="147" y="282" type="line"/>
      <point x="147" y="383" type="line"/>
      <point x="186" y="419" type="line"/>
      <point x="243" y="419" type="line"/>
      <point x="260" y="500" type="line"/>
      <point x="136" y="500" type="line"/>
      <point x="32" y="411" type="line"/>
      <point x="32" y="262" type="line"/>
      <point x="136" y="173" type="line"/>
    </contour>
    <contour>
      <point x="365" y="290" type="line"/>
      <point x="365" y="416" type="line"/>
      <point x="260" y="500" type="line"/>
      <point x="210" y="419" type="line"/>
      <point x="249" y="386" type="line"/>
      <point x="249" y="290" type="line"/>
    </contour>
    <contour>
      <point x="179" y="73" type="line"/>
      <point x="142" y="106" type="line"/>
      <point x="142" y="143" type="line"/>
      <point x="42" y="143" type="line"/>
      <point x="42" y="80" type="line"/>
      <point x="134" y="0" type="line"/>
    </contour>
    <contour>
      <point x="365" y="89" type="line"/>
      <point x="365" y="333" type="line"/>
      <point x="249" y="426" type="line"/>
      <point x="249" y="110" type="line"/>
      <point x="210" y="75" type="line"/>
      <point x="156" y="75" type="line"/>
      <point x="134" y="0" type="line"/>
      <point x="260" y="0" type="line"/>
    </contour>
  </outline>
</glyph>
<glyph name="one.osf" format="1">
  <advance width="251"/>
  <outline>
    <contour>
      <point x="83" y="414" type="line"/>
      <point x="83" y="0" type="line"/>
      <point x="198" y="0" type="line"/>
      <point x="198" y="500" type="line"/>
      <point x="77" y="500" type="line"/>
      <point x="53" y="425" type="line"/>
      <point x="53" y="414" type="line"/>
    </contour>
  </outline>
</glyph>
<glyph name="seven.osf" format="1">
  <advance width="357"/>
  <outline>
    <contour>
      <point x="211" y="500" type="line"/>
      <point x="185" y="386" type="line"/>
      <point x="68" y="30" type="line"/>
      <point x="68" y="0" type="line"/>
      <point x="176" y="0" type="line"/>
      <point x="233" y="193" type="line"/>
      <point x="323" y="470" type="line"/>
      <point x="323" y="500" type="line"/>
    </contour>
    <contour>
      <point x="42" y="500" type="line"/>
      <point x="33" y="412" type="line"/>
      <point x="160" y="415" type="line"/>
      <point x="256" y="415" type="line"/>
      <point x="256" y="500" type="line"/>
    </contour>
  </outline>
</glyph>
<glyph name="six.osf" format="1">
  <advance width="406"/>
  <outline>
    <contour>
      <point x="146" y="500" type="line"/>
      <point x="41" y="411" type="line"/>
      <point x="41" y="84" type="line"/>
      <point x="146" y="0" type="line"/>
      <point x="270" y="0" type="line"/>
      <point x="374" y="89" type="line"/>
      <point x="374" y="218" type="line"/>
      <point x="270" y="307" type="line"/>
      <point x="193" y="307" type="line"/>
      <point x="153" y="269" type="line"/>
      <point x="153" y="201" type="line"/>
      <point x="190" y="233" type="line"/>
      <point x="220" y="233" type="line"/>
      <point x="259" y="198" type="line"/>
      <point x="259" y="117" type="line"/>
      <point x="220" y="81" type="line"/>
      <point x="196" y="81" type="line"/>
      <point x="157" y="116" type="line"/>
      <point x="157" y="390" type="line"/>
      <point x="196" y="425" type="line"/>
      <point x="229" y="425" type="line"/>
      <point x="264" y="394" type="line"/>
      <point x="264" y="351" type="line"/>
      <point x="364" y="351" type="line"/>
      <point x="364" y="420" type="line"/>
      <point x="272" y="500" type="line"/>
    </contour>
  </outline>
</glyph>
<glyph name="three.osf" format="1">
  <advance width="403"/>
  <outline>
    <contour>
      <point x="128" y="299" type="line"/>
      <point x="128" y="224" type="line"/>
      <point x="214" y="224" type="line"/>
      <point x="248" y="194" type="line"/>
      <point x="248" y="111" type="line"/>
      <point x="215" y="81" type="line"/>
      <point x="155" y="81" type="line"/>
      <point x="138" y="0" type="line"/>
      <point x="259" y="0" type="line"/>
      <point x="363" y="89" type="line"/>
      <point x="363" y="209" type="line"/>
      <point x="259" y="299" type="line"/>
    </contour>
    <contour>
      <point x="32" y="191" type="line"/>
      <point x="32" y="84" type="line"/>
      <point x="138" y="0" type="line"/>
      <point x="168" y="81" type="line"/>
      <point x="134" y="108" type="line"/>
      <point x="134" y="191" type="line"/>
    </contour>
    <contour>
      <point x="34" y="420" type="line"/>
      <point x="34" y="342" type="line"/>
      <point x="134" y="342" type="line"/>
      <point x="134" y="400" type="line"/>
      <point x="165" y="427" type="line"/>
      <point x="126" y="500" type="line"/>
    </contour>
    <contour>
      <point x="126" y="500" type="line"/>
      <point x="148" y="425" type="line"/>
      <point x="209" y="425" type="line"/>
      <point x="241" y="396" type="line"/>
      <point x="241" y="329" type="line"/>
      <point x="208" y="299" type="line"/>
      <point x="128" y="299" type="line"/>
      <point x="128" y="239" type="line"/>
      <point x="259" y="239" type="line"/>
      <point x="356" y="320" type="line"/>
      <point x="356" y="417" type="line"/>
      <point x="258" y="500" type="line"/>
    </contour>
  </outline>
</glyph>
<glyph name="two.osf" format="1">
  <advance width="380"/>
  <outline>
    <contour>
      <point x="137" y="500" type="line"/>
      <point x="39" y="421" type="line"/>
      <point x="39" y="318" type="line"/>
      <point x="140" y="318" type="line"/>
      <point x="140" y="392" type="line"/>
      <point x="173" y="420" type="line"/>
      <point x="203" y="420" type="line"/>
      <point x="237" y="387" type="line"/>
      <point x="237" y="339" type="line"/>
      <point x="226" y="314" type="line"/>
      <point x="32" y="169" type="line"/>
      <point x="32" y="69" type="line"/>
      <point x="109" y="0" type="line"/>
      <point x="334" y="0" type="line"/>
      <point x="339" y="91" type="line"/>
      <point x="171" y="91" type="line"/>
      <point x="150" y="111" type="line"/>
      <point x="150" y="117" type="line"/>
      <point x="161" y="141" type="line"/>
      <point x="304" y="237" type="line"/>
      <point x="348" y="331" type="line"/>
      <point x="348" y="411" type="line"/>
      <point x="248" y="500" type="line"/>
    </contour>
  </outline>
</glyph>
